<svg width="500" height="443" viewBox="0 0 500 443" fill="none" xmlns="http://www.w3.org/2000/svg">
<g clip-path="url(#clip0_19_556)">
<path d="M261.47 375.57L252.92 244.134L253.21 244.113L262.92 375.47C262.44 375.51 261.95 375.54 261.47 375.57ZM234.95 375.48L233.69 375.38L244.18 244.083L244.65 244.124L234.94 375.48H234.95ZM289.63 371.546L260.92 243.002L261.54 242.862L290.7 371.306L289.62 371.546H289.63ZM207.18 371.336L205.94 371.045L235.84 242.772L236.3 242.882L207.18 371.336ZM316.4 363.467L269.14 240.54L269.48 240.41L317.68 362.967C317.26 363.137 316.83 363.297 316.4 363.467ZM180.28 363.057L179.1 362.587L227.83 240.239L228.27 240.42L180.27 363.057H180.28ZM341.91 351.365L276.63 237.006L277.07 236.756L342.98 350.754L341.91 351.365ZM154.88 350.814C154.49 350.584 154.1 350.364 153.71 350.134L220.41 236.596L220.75 236.796L154.88 350.824V350.814ZM365.06 335.769L283.77 232.201L284.02 232.001L366.17 334.888C365.8 335.178 365.43 335.478 365.06 335.769ZM131.74 335.018C131.33 334.688 130.92 334.367 130.52 334.037L213.57 231.871L213.71 231.981L131.75 335.028L131.74 335.018ZM385.83 316.739L289.93 226.545L290.23 226.215L386.71 315.778L385.83 316.729V316.739ZM111.13 315.908L110.3 315.017L207.15 225.855L207.51 226.235L111.13 315.908ZM403.39 295.036L295.36 219.838L295.52 219.608L404.22 293.835C403.95 294.236 403.67 294.636 403.39 295.036ZM93.6296 293.995C93.3696 293.615 93.1096 293.234 92.8496 292.854L202 219.298L202.2 219.588L93.6296 293.995ZM417.75 270.581L299.52 212.761L299.79 212.21L418.24 269.56L417.74 270.581H417.75ZM79.5296 269.66C79.3296 269.24 79.1296 268.819 78.9296 268.409L197.84 212.01L197.99 212.32L79.5296 269.66ZM428.15 244.594L302.72 204.803L302.82 204.492L428.58 243.233C428.44 243.683 428.3 244.144 428.15 244.594ZM69.1996 243.403C69.0696 242.972 68.9396 242.552 68.8096 242.121L194.81 204.162L194.93 204.552L69.1996 243.393V243.403ZM434.62 216.995L304.6 196.794L304.67 196.314L434.81 215.754L434.62 216.995ZM62.9496 215.974C62.8796 215.524 62.8196 215.083 62.7496 214.633L193 195.953L193.06 196.344L62.9496 215.974ZM436.88 189.257L305.31 188.085V187.545H436.89V187.805C436.89 188.296 436.89 188.776 436.89 189.257H436.88ZM192.43 187.925H60.8496V186.714L192.43 187.395V187.925ZM304.71 179.496L304.67 179.216L434.75 159.396C434.82 159.876 434.89 160.357 434.96 160.847L304.71 179.506V179.496ZM193.06 179.296L62.8896 160.066C62.9596 159.606 63.0296 159.155 63.0996 158.705L193.12 178.936L193.07 179.296H193.06ZM302.96 171.538L302.78 170.938L428.49 132.037L428.82 133.098L302.97 171.538H302.96ZM194.89 171.198L69.1096 132.518L69.4996 131.276L195.02 170.777L194.89 171.208V171.198ZM299.94 163.67L299.71 163.199L418.13 105.78L418.66 106.871L299.94 163.67ZM197.93 163.42L79.3996 106.23L79.9296 105.129L198.16 162.949L197.93 163.42ZM295.8 156.392L295.46 155.892L404.03 81.4846L404.67 82.4256L295.79 156.382L295.8 156.392ZM202.18 156.052L93.4096 81.885C93.6596 81.5146 93.9196 81.1343 94.1796 80.7639L202.39 155.702L202.17 156.022L202.18 156.052ZM290.36 149.495L290.19 149.315L386.47 59.5418C386.81 59.9122 387.15 60.2726 387.49 60.643L290.36 149.495ZM207.46 149.415L110.89 59.9122C111.2 59.5819 111.5 59.2515 111.81 58.9212L207.72 149.095L207.46 149.375V149.415ZM284.23 143.769L283.94 143.539L365.9 40.4921C366.26 40.7723 366.61 41.0626 366.97 41.3529L284.23 143.769ZM213.68 143.629L131.41 40.8024C131.78 40.5021 132.15 40.2118 132.52 39.9215L213.93 143.399L213.68 143.599V143.629ZM277.34 139.004L276.96 138.784L342.67 24.6356L343.8 25.2963L277.33 138.974L277.34 139.004ZM220.64 138.864L154.58 24.9159C154.97 24.6856 155.36 24.4654 155.75 24.2452L220.97 138.644L220.64 138.834V138.864ZM269.72 135.28L269.38 135.14L317.31 12.4429C317.74 12.6131 318.16 12.7833 318.59 12.9535L269.72 135.25V135.28ZM228.22 135.2L179.85 12.6631C180.28 12.493 180.71 12.3228 181.15 12.1526L228.54 135.03L228.22 135.16V135.2ZM261.77 132.788L261.42 132.708L290.31 4.16432C290.76 4.26443 291.21 4.36453 291.66 4.47465L261.76 132.748L261.77 132.788ZM236.16 132.748L206.8 4.30447C207.26 4.20437 207.71 4.09425 208.17 3.99415L236.47 132.628L236.14 132.698L236.16 132.748ZM253.42 131.497L253.05 131.467L262.55 0.050052C263.01 0.0800832 263.46 0.120125 263.92 0.150156L253.41 131.446L253.42 131.497ZM244.5 131.487L234.58 0.100104C235.03 0.0700728 235.49 0.0300312 235.95 0L244.87 131.416L244.5 131.446V131.487Z" fill="#E6E6E6"/>
<path d="M94.2704 348.031C92.5104 348.031 90.9704 347.461 89.6604 346.33C88.3504 345.198 87.6904 343.607 87.6904 341.565C87.6904 339.753 88.3204 338.231 89.5904 337C90.8604 335.769 92.4204 335.148 94.2604 335.148C96.1004 335.148 97.6104 335.769 98.8504 337C100.09 338.231 100.71 339.753 100.71 341.565C100.71 343.577 100.06 345.158 98.7604 346.3C97.4604 347.451 95.9604 348.021 94.2604 348.021L94.2704 348.031Z" fill="#EBEBEB"/>
<path d="M74.0002 297.759C74.0002 295.096 74.8602 292.414 76.5702 289.681C78.2802 286.948 80.7802 284.696 84.0702 282.904C87.3602 281.112 91.1902 280.221 95.5702 280.221C99.6402 280.221 103.24 280.972 106.36 282.463C109.48 283.965 111.89 285.997 113.59 288.57C115.29 291.142 116.14 293.945 116.14 296.958C116.14 299.341 115.66 301.423 114.69 303.215C113.72 305.007 112.57 306.548 111.23 307.85C109.9 309.151 107.5 311.343 104.05 314.416C103.09 315.287 102.33 316.048 101.75 316.699C101.17 317.36 100.75 317.96 100.46 318.501C100.18 319.051 99.9602 319.592 99.8102 320.132C99.6602 320.683 99.4202 321.634 99.1102 323.005C98.5802 325.918 96.9002 327.37 94.1002 327.37C92.6402 327.37 91.4102 326.889 90.4102 325.938C89.4102 324.987 88.9102 323.576 88.9102 321.704C88.9102 319.352 89.2802 317.319 90.0102 315.598C90.7402 313.876 91.7102 312.364 92.9202 311.063C94.1302 309.762 95.7602 308.22 97.8102 306.428C99.6102 304.857 100.91 303.675 101.71 302.884C102.51 302.094 103.18 301.203 103.73 300.222C104.28 299.241 104.55 298.18 104.55 297.028C104.55 294.786 103.71 292.904 102.04 291.363C100.37 289.821 98.2102 289.05 95.5702 289.05C92.4802 289.05 90.2002 289.831 88.7402 291.383C87.2802 292.934 86.0402 295.227 85.0302 298.24C84.0702 301.403 82.2602 302.985 79.5902 302.985C78.0202 302.985 76.6902 302.434 75.6102 301.323C74.5302 300.222 73.9902 299.02 73.9902 297.739L74.0002 297.759Z" fill="#EBEBEB"/>
<path d="M406.319 271.141C404.569 271.011 403.079 270.321 401.849 269.089C400.619 267.858 400.089 266.226 400.249 264.194C400.389 262.392 401.139 260.921 402.499 259.79C403.859 258.659 405.459 258.158 407.299 258.298C409.109 258.438 410.59 259.169 411.73 260.49C412.87 261.812 413.379 263.383 413.239 265.185C413.089 267.187 412.319 268.719 410.939 269.76C409.559 270.811 408.019 271.262 406.319 271.131V271.141Z" fill="#F0F0F0"/>
<path d="M389.93 219.468C390.13 216.815 391.19 214.202 393.11 211.61C395.03 209.017 397.69 206.955 401.1 205.423C404.51 203.892 408.41 203.291 412.78 203.621C416.84 203.932 420.37 204.953 423.37 206.685C426.37 208.416 428.61 210.629 430.11 213.321C431.61 216.014 432.24 218.867 432.01 221.88C431.83 224.253 431.19 226.295 430.09 228.007C428.99 229.718 427.72 231.17 426.29 232.371C424.86 233.572 422.31 235.565 418.63 238.377C417.61 239.168 416.79 239.869 416.17 240.48C415.55 241.09 415.07 241.661 414.75 242.181C414.43 242.702 414.17 243.232 413.97 243.763C413.77 244.294 413.47 245.235 413.06 246.576C412.31 249.439 410.53 250.76 407.73 250.55C406.27 250.44 405.08 249.869 404.16 248.848C403.24 247.827 402.85 246.376 402.99 244.504C403.17 242.161 403.69 240.159 404.55 238.498C405.41 236.836 406.49 235.404 407.79 234.203C409.09 233.002 410.84 231.58 413.02 229.949C414.93 228.527 416.32 227.446 417.18 226.705C418.04 225.975 418.78 225.134 419.4 224.203C420.02 223.272 420.37 222.231 420.46 221.089C420.63 218.857 419.94 216.915 418.39 215.253C416.84 213.592 414.75 212.661 412.12 212.461C409.04 212.22 406.71 212.831 405.14 214.262C403.57 215.704 402.16 217.886 400.92 220.819C399.73 223.902 397.8 225.334 395.14 225.134C393.57 225.014 392.29 224.363 391.3 223.182C390.31 222 389.86 220.759 389.95 219.478L389.93 219.468Z" fill="#F0F0F0"/>
<path d="M89.7901 105.57C88.2301 105.49 86.9001 104.919 85.7901 103.848C84.6801 102.787 84.1701 101.345 84.2701 99.5434C84.3501 97.9417 84.9901 96.6203 86.1701 95.5893C87.3501 94.5582 88.7601 94.0777 90.3901 94.1678C92.0001 94.2479 93.3201 94.8685 94.3701 96.0197C95.4101 97.1709 95.8901 98.5523 95.8101 100.154C95.7201 101.936 95.0701 103.307 93.8701 104.258C92.6701 105.219 91.3101 105.66 89.8101 105.58L89.7901 105.57Z" fill="#E6E6E6"/>
<path d="M74.1599 60.1024C74.2799 57.7499 75.1699 55.4075 76.8099 53.0651C78.4499 50.7326 80.7699 48.8407 83.7699 47.4092C86.7599 45.9777 90.1999 45.3571 94.0799 45.5573C97.6899 45.7475 100.84 46.5783 103.53 48.0399C106.22 49.5114 108.26 51.4234 109.65 53.7858C111.04 56.1483 111.66 58.6609 111.52 61.3337C111.41 63.4358 110.89 65.2677 109.94 66.7993C109 68.3409 107.91 69.6523 106.67 70.7434C105.43 71.8346 103.21 73.6665 99.9999 76.2291C99.1099 76.9499 98.3999 77.5905 97.8599 78.1511C97.3199 78.7017 96.9099 79.2222 96.6399 79.6927C96.3699 80.1632 96.1499 80.6337 95.9899 81.1142C95.8299 81.5947 95.5799 82.4256 95.2399 83.6268C94.6299 86.1795 93.0899 87.3907 90.5999 87.2606C89.3099 87.1905 88.2399 86.72 87.3999 85.8291C86.5599 84.9382 86.1799 83.6668 86.2699 82.0051C86.3799 79.923 86.7999 78.1411 87.5199 76.6496C88.2499 75.158 89.1699 73.8667 90.2999 72.7655C91.4299 71.6644 92.9399 70.373 94.8399 68.8815C96.4999 67.5801 97.7099 66.5891 98.4599 65.9184C99.2099 65.2477 99.8399 64.4969 100.37 63.6561C100.9 62.8152 101.19 61.8842 101.24 60.8732C101.34 58.8911 100.69 57.1793 99.2799 55.7378C97.8699 54.2963 95.9999 53.5155 93.6599 53.3954C90.9199 53.2553 88.8699 53.8359 87.5099 55.1472C86.1499 56.4586 84.9399 58.4206 83.9099 61.0534C82.9199 63.8062 81.2399 65.1276 78.8799 64.9975C77.4899 64.9274 76.3399 64.3768 75.4299 63.3457C74.5199 62.3147 74.0999 61.2335 74.1599 60.0924V60.1024Z" fill="#E6E6E6"/>
<path d="M132.64 256.116C131.65 256.046 130.81 255.655 130.12 254.965C129.43 254.274 129.13 253.353 129.21 252.202C129.29 251.181 129.71 250.35 130.48 249.709C131.25 249.069 132.15 248.788 133.19 248.868C134.21 248.948 135.05 249.359 135.69 250.11C136.34 250.86 136.62 251.741 136.54 252.762C136.45 253.894 136.02 254.754 135.24 255.345C134.46 255.936 133.59 256.196 132.63 256.126L132.64 256.116Z" fill="#EBEBEB"/>
<path d="M123.36 226.946C123.47 225.454 124.07 223.973 125.15 222.511C126.23 221.049 127.73 219.878 129.66 219.017C131.59 218.146 133.78 217.806 136.25 217.996C138.54 218.167 140.54 218.747 142.23 219.718C143.92 220.689 145.19 221.94 146.04 223.462C146.89 224.984 147.25 226.595 147.12 228.297C147.02 229.638 146.66 230.79 146.04 231.761C145.42 232.732 144.7 233.552 143.9 234.223C143.09 234.904 141.65 236.025 139.58 237.617C139.01 238.067 138.54 238.458 138.19 238.808C137.84 239.158 137.57 239.479 137.39 239.769C137.21 240.059 137.06 240.36 136.95 240.66C136.84 240.96 136.67 241.491 136.44 242.252C136.02 243.863 135.01 244.614 133.43 244.494C132.61 244.434 131.94 244.113 131.41 243.533C130.89 242.952 130.67 242.141 130.75 241.08C130.85 239.759 131.14 238.628 131.63 237.687C132.12 236.746 132.72 235.935 133.46 235.254C134.2 234.574 135.18 233.773 136.41 232.852C137.49 232.051 138.27 231.44 138.75 231.02C139.23 230.609 139.65 230.129 140 229.608C140.35 229.078 140.55 228.497 140.6 227.847C140.69 226.585 140.3 225.484 139.43 224.553C138.55 223.612 137.37 223.092 135.89 222.982C134.15 222.851 132.84 223.192 131.95 224.003C131.06 224.813 130.27 226.055 129.57 227.706C128.9 229.448 127.81 230.259 126.31 230.149C125.42 230.079 124.7 229.718 124.14 229.048C123.58 228.377 123.32 227.686 123.38 226.956L123.36 226.946Z" fill="#EBEBEB"/>
<path d="M333.72 270.731C332.73 270.661 331.89 270.271 331.2 269.58C330.51 268.889 330.21 267.968 330.29 266.817C330.37 265.796 330.79 264.965 331.56 264.324C332.33 263.684 333.23 263.403 334.27 263.484C335.29 263.564 336.13 263.974 336.77 264.725C337.42 265.476 337.7 266.357 337.62 267.378C337.53 268.509 337.1 269.37 336.32 269.96C335.54 270.551 334.67 270.811 333.71 270.741L333.72 270.731Z" fill="#EBEBEB"/>
<path d="M324.44 241.571C324.55 240.079 325.15 238.598 326.23 237.136C327.31 235.675 328.81 234.504 330.74 233.643C332.67 232.772 334.86 232.431 337.33 232.622C339.62 232.792 341.62 233.372 343.31 234.343C345 235.314 346.27 236.566 347.12 238.087C347.97 239.609 348.33 241.22 348.2 242.922C348.1 244.264 347.74 245.415 347.12 246.386C346.5 247.357 345.78 248.178 344.98 248.848C344.17 249.529 342.73 250.65 340.66 252.242C340.09 252.692 339.62 253.083 339.27 253.433C338.92 253.784 338.65 254.104 338.47 254.394C338.29 254.684 338.14 254.985 338.03 255.285C337.92 255.585 337.75 256.116 337.52 256.877C337.1 258.488 336.09 259.239 334.51 259.119C333.69 259.059 333.02 258.739 332.49 258.158C331.97 257.577 331.75 256.767 331.83 255.706C331.93 254.384 332.22 253.253 332.71 252.312C333.19 251.371 333.8 250.56 334.54 249.879C335.28 249.199 336.26 248.398 337.49 247.477C338.57 246.676 339.35 246.066 339.83 245.645C340.31 245.235 340.73 244.754 341.08 244.234C341.43 243.703 341.63 243.122 341.68 242.472C341.77 241.21 341.38 240.109 340.51 239.178C339.63 238.237 338.45 237.717 336.97 237.607C335.23 237.477 333.92 237.817 333.03 238.628C332.14 239.439 331.35 240.68 330.65 242.332C329.98 244.073 328.89 244.884 327.39 244.774C326.5 244.704 325.78 244.344 325.22 243.673C324.66 243.002 324.4 242.312 324.46 241.581L324.44 241.571Z" fill="#EBEBEB"/>
<path d="M406.21 112.176C405.22 112.176 404.35 111.856 403.61 111.215C402.87 110.575 402.5 109.684 402.5 108.523C402.5 107.502 402.86 106.641 403.57 105.94C404.29 105.239 405.17 104.889 406.21 104.889C407.25 104.889 408.1 105.239 408.8 105.94C409.5 106.641 409.85 107.502 409.85 108.523C409.85 109.654 409.48 110.555 408.75 111.195C408.02 111.836 407.17 112.166 406.21 112.166V112.176Z" fill="#EBEBEB"/>
<path d="M394.77 83.787C394.77 82.2854 395.25 80.7639 396.22 79.2223C397.19 77.6807 398.6 76.4093 400.46 75.3983C402.32 74.3872 404.48 73.8867 406.96 73.8867C409.26 73.8867 411.29 74.3072 413.05 75.158C414.81 75.9989 416.17 77.1501 417.13 78.6016C418.09 80.0531 418.57 81.6348 418.57 83.3365C418.57 84.6779 418.3 85.8592 417.75 86.8702C417.2 87.8813 416.55 88.7522 415.8 89.4929C415.05 90.2237 413.69 91.465 411.74 93.1968C411.2 93.6873 410.77 94.1177 410.44 94.4881C410.11 94.8585 409.87 95.1989 409.71 95.5092C409.55 95.8195 409.43 96.1298 409.34 96.4301C409.25 96.7405 409.12 97.281 408.95 98.0518C408.65 99.6935 407.7 100.514 406.12 100.514C405.3 100.514 404.6 100.244 404.04 99.7135C403.48 99.173 403.2 98.3822 403.2 97.3211C403.2 95.9897 403.41 94.8485 403.82 93.8775C404.23 92.9065 404.78 92.0556 405.46 91.3148C406.14 90.5841 407.06 89.7031 408.22 88.6921C409.24 87.8112 409.97 87.1405 410.42 86.69C410.87 86.2395 411.25 85.739 411.56 85.1885C411.87 84.6379 412.02 84.0373 412.02 83.3866C412.02 82.1253 411.55 81.0542 410.6 80.1833C409.66 79.3124 408.44 78.8819 406.95 78.8819C405.21 78.8819 403.92 79.3224 403.1 80.1933C402.28 81.0742 401.58 82.3655 401.01 84.0673C400.47 85.8491 399.45 86.7401 397.94 86.7401C397.05 86.7401 396.3 86.4297 395.69 85.7991C395.08 85.1784 394.77 84.4977 394.77 83.777V83.787Z" fill="#EBEBEB"/>
<path d="M443.92 298.74H263.17C259.94 298.74 257.31 296.107 257.31 292.874V29.3304C257.31 26.0971 259.94 23.4644 263.17 23.4644H443.92C447.15 23.4644 449.78 26.0971 449.78 29.3304V292.874C449.78 296.107 447.15 298.74 443.92 298.74ZM263.17 23.7146C260.08 23.7146 257.56 26.2372 257.56 29.3304V292.874C257.56 295.967 260.08 298.49 263.17 298.49H443.92C447.01 298.49 449.53 295.967 449.53 292.874V29.3304C449.53 26.2372 447.01 23.7146 443.92 23.7146H263.17Z" fill="#E0E0E0"/>
<path d="M235.49 298.74H54.7496C51.5196 298.74 48.8896 296.107 48.8896 292.874V29.3304C48.8896 26.0971 51.5196 23.4644 54.7496 23.4644H235.49C238.72 23.4644 241.35 26.0971 241.35 29.3304V292.874C241.35 296.107 238.72 298.74 235.49 298.74ZM54.7496 23.7146C51.6596 23.7146 49.1396 26.2372 49.1396 29.3304V292.874C49.1396 295.967 51.6596 298.49 54.7496 298.49H235.49C238.58 298.49 241.1 295.967 241.1 292.874V29.3304C241.1 26.2372 238.58 23.7146 235.49 23.7146H54.7496Z" fill="#E0E0E0"/>
<path d="M500 359.874H0V360.124H500V359.874Z" fill="#E0E0E0"/>
<path d="M67.7299 374.158H51.6699V374.408H67.7299V374.158Z" fill="#E0E0E0"/>
<path d="M223.88 371.446H170.35V371.696H223.88V371.446Z" fill="#E0E0E0"/>
<path d="M104.98 383.458H68.7305V383.708H104.98V383.458Z" fill="#E0E0E0"/>
<path d="M421.54 371.316H378.35V371.566H421.54V371.316Z" fill="#E0E0E0"/>
<path d="M436.78 371.316H430.45V371.566H436.78V371.316Z" fill="#E0E0E0"/>
<path d="M370.1 377.552H316.21V377.802H370.1V377.552Z" fill="#E0E0E0"/>
<path d="M461.48 436.754C461.48 440.207 366.29 443 248.86 443C131.43 443 36.2402 440.207 36.2402 436.754C36.2402 433.3 131.43 430.507 248.86 430.507C366.29 430.507 461.48 433.3 461.48 436.754Z" fill="#F5F5F5"/>
<path d="M130.49 138.894C130.49 123.148 135.33 107.201 145.01 91.0345C154.69 74.8778 168.82 61.4939 187.39 50.8828C205.96 40.2818 227.63 34.9763 252.39 34.9763C275.4 34.9763 295.72 39.4109 313.34 48.2801C330.96 57.1493 344.57 69.2019 354.17 84.4477C363.77 99.7035 368.57 116.271 368.57 134.169C368.57 148.254 365.83 160.607 360.36 171.208C354.88 181.819 348.38 190.968 340.84 198.676C333.3 206.384 319.77 219.348 300.25 237.587C294.85 242.722 290.53 247.247 287.27 251.131C284.02 255.025 281.6 258.589 280.01 261.822C278.42 265.055 277.19 268.289 276.32 271.522C275.45 274.755 274.14 280.431 272.39 288.55C269.37 305.788 259.93 314.406 244.06 314.406C235.81 314.406 228.86 311.594 223.23 305.958C217.6 300.322 214.78 291.953 214.78 280.852C214.78 266.927 216.84 254.875 220.97 244.684C225.1 234.493 230.57 225.544 237.4 217.836C244.22 210.128 253.43 200.969 265.02 190.368C275.18 181.088 282.52 174.081 287.04 169.356C291.56 164.631 295.37 159.375 298.47 153.569C301.57 147.773 303.11 141.477 303.11 134.68C303.11 121.416 298.39 110.234 288.94 101.115C279.5 92.0055 267.31 87.4408 252.39 87.4408C234.93 87.4408 222.07 92.0356 213.82 101.235C205.57 110.435 198.58 123.979 192.87 141.877C187.47 160.607 177.24 169.966 162.16 169.966C153.27 169.966 145.77 166.693 139.66 160.146C133.55 153.599 130.49 146.512 130.49 138.894Z" fill="#6267DF"/>
<g opacity="0.2">
<path d="M297.21 211.119C293 187.565 288.64 178.085 283 173.42C278.56 177.805 272.56 183.45 265 190.358C255.25 199.277 247.2 207.175 240.82 214.042C243.24 244.944 246.68 288.83 246.72 289.2L248.8 314.126C257.64 313.035 264.1 308.751 268.18 301.283C267.43 292.013 265.73 288.399 265.73 288.399C265.73 288.399 267.88 256.827 269.92 232.231C272.81 242.021 275.58 252.983 279.3 263.333C279.53 262.833 279.75 262.332 280 261.832C281.59 258.598 284.01 255.035 287.26 251.141C290.51 247.247 294.84 242.732 300.24 237.597C300.77 237.106 301.27 236.636 301.79 236.145C299.83 226.175 298.12 216.765 297.21 211.129V211.119Z" fill="black"/>
</g>
<g opacity="0.2">
<path d="M308.709 177.715L299.399 151.657C299.099 152.298 298.789 152.929 298.459 153.559C296.619 157.003 294.529 160.256 292.189 163.32L301.349 180.557C300.799 181.428 300.119 182.85 300.229 184.341C300.419 186.784 299.919 188.786 300.189 190.598C300.459 192.41 301.779 190.328 302.259 189.076C302.739 187.825 303.289 186.414 304.169 186.924C305.049 187.435 309.429 195.022 310.729 195.593C312.029 196.164 311.709 194.712 311.709 194.712C311.709 194.712 312.819 196.524 313.659 196.284C313.879 196.224 314.279 195.723 313.899 194.812C313.049 192.77 311.049 188.586 311.049 188.586C311.159 188.826 313.999 193.821 314.529 194.512C315.209 195.413 315.999 195.493 316.509 195.083C317.239 194.492 313.919 188.185 313.969 187.825C313.969 187.825 315.759 191.519 316.959 191.579C318.169 191.639 317.169 189.257 315.889 187.314C314.719 185.543 312.879 181.749 311.509 180.057C310.609 178.936 309.719 178.145 308.729 177.725L308.709 177.715Z" fill="black"/>
</g>
<g opacity="0.2">
<path d="M202.34 113.208C202.4 113.178 202.45 113.147 202.51 113.117C203.86 112.387 202.71 106.821 202.71 106.821C202.71 106.821 204.1 105.319 203.57 103.918C203.29 103.177 202.95 103.057 202.95 103.057C203.99 101.896 203.83 100.084 202.58 99.1429C202.47 99.0628 202.4 99.0128 202.4 99.0128C202.86 98.4022 202.36 96.4702 201.16 97.0207C200.9 97.1409 200.34 97.5012 199.65 97.9817V95.6693C199.78 95.6693 199.9 95.6693 199.99 95.6593C204.14 95.4091 207.22 90.6141 206.87 84.9482C206.52 79.2923 202.88 74.9078 198.73 75.158C198.48 75.178 198.24 75.2081 197.99 75.2581C198.02 75.2581 198.05 75.2581 198.07 75.2681C198.01 75.2681 197.95 75.2681 197.9 75.2781C197.93 75.2781 197.96 75.2581 197.99 75.2581C197.74 75.2381 197.5 75.2381 197.25 75.2581C193.1 75.5084 190.02 80.3034 190.37 85.9692C190.69 91.1847 193.81 95.309 197.54 95.7194V99.5433C195.28 101.285 192.85 103.387 192.92 103.978C193.05 104.999 195.86 114.279 195.86 114.279H195.93C196.17 116.631 196.8 122.317 197.75 128.393C199.55 123.999 201.46 119.955 203.47 116.261L202.34 113.208ZM199.12 95.6393C199.12 95.6393 199.07 95.6393 199.04 95.6293C199.1 95.6293 199.15 95.6293 199.21 95.6193C199.18 95.6193 199.15 95.6393 199.12 95.6393Z" fill="black"/>
</g>
<g opacity="0.2">
<path d="M242.34 64.0565C242.34 64.0565 242.29 64.0565 242.27 64.0565C241.67 63.9764 241.05 63.9464 240.41 63.9764C238.11 63.8162 236.13 63.616 230.64 65.6381C224.14 68.3309 221.33 73.4863 220.55 77.4704C220.1 82.9661 221.12 87.1304 221.44 92.6161L221.87 92.0255C221.87 92.5761 221.88 93.1167 221.91 93.6472C221.93 93.9475 221.97 94.2278 222 94.5181C229.78 89.8132 239.9 87.4508 252.39 87.4508C253.07 87.4508 253.73 87.4708 254.4 87.4908C254.26 87.3006 254.1 87.1304 253.91 86.9703C254.32 85.5188 254.65 84.0172 254.95 82.6058C255.22 81.2143 255.28 79.8128 255.19 78.4214C257.17 79.1321 259.06 80.5336 259.79 82.2254C260.77 84.5077 261.67 86.2696 262.79 88.2616C270.79 89.573 277.84 92.466 283.95 96.9306C286.6 96.4301 289.16 95.5192 291.37 93.8674C294.62 91.4349 296.82 86.72 295.45 82.6358C294.16 83.8671 292.39 84.4477 290.71 84.1974C292.16 82.6658 292.76 80.2133 292.22 78.0811C286.6 80.3134 279.89 83.0963 274.51 80.2333C272.04 78.9219 270.45 76.089 268.48 73.9768C266.51 71.8646 264.36 69.7924 261.72 68.9516C259.57 68.2709 255.37 69.5922 253.12 71.5142C252.75 70.8736 252.36 70.2429 251.9 69.6523C249.82 67.5401 246.52 64.6271 242.34 64.0565Z" fill="black"/>
</g>
<path d="M244.99 436.753C235.05 436.753 226.37 433.39 218.96 426.673C211.54 419.946 207.84 410.556 207.84 398.464C207.84 387.743 211.43 378.723 218.6 371.406C225.77 364.088 234.57 360.424 245 360.424C255.43 360.424 263.9 364.088 270.91 371.406C277.92 378.723 281.42 387.743 281.42 398.464C281.42 410.376 277.75 419.736 270.42 426.543C263.09 433.35 254.61 436.753 245 436.753H244.99Z" fill="#6267DF"/>
<g opacity="0.2">
<path d="M246.99 370.084C246.01 369.113 244.52 368.903 243.15 368.833C239.3 368.633 235.77 369.153 232.06 370.224C226.56 372.337 221.87 376.511 219.15 381.746C216.43 386.982 215.69 393.218 217.12 398.944C217.77 401.547 219.49 404.47 222.16 404.36C223.93 404.28 225.3 402.858 226.48 401.537C229.29 398.384 232.1 395.24 234.91 392.087C239.12 387.372 243.35 382.607 246.53 377.142C247.8 374.939 248.8 371.886 247 370.094L246.99 370.084Z" fill="white"/>
</g>
<path d="M301.68 27.3084C291.61 19.8707 277.42 22.0129 269.98 32.0934C264.24 39.8815 264.23 50.1121 269.15 57.8001L267.32 64.3669L274.47 63.5961C274.57 63.6762 274.66 63.7563 274.76 63.8363C284.83 71.2741 299.02 69.1318 306.46 59.0514C313.89 48.9709 311.75 34.7662 301.68 27.3184V27.3084Z" fill="#6267DF"/>
<path opacity="0.7" d="M301.68 27.3084C291.61 19.8707 277.42 22.0129 269.98 32.0934C264.24 39.8815 264.23 50.1121 269.15 57.8001L267.32 64.3669L274.47 63.5961C274.57 63.6762 274.66 63.7563 274.76 63.8363C284.83 71.2741 299.02 69.1318 306.46 59.0514C313.89 48.9709 311.75 34.7662 301.68 27.3184V27.3084Z" fill="white"/>
<path d="M304.12 25.8369C310.21 29.9912 313.97 37.3589 313.75 44.7365" stroke="#6267DF" stroke-width="0.5" stroke-linecap="round" stroke-linejoin="round"/>
<path d="M313.53 48.12C313.58 49.2412 313.4 50.3823 312.99 51.4234" stroke="#6267DF" stroke-width="0.5" stroke-linecap="round" stroke-linejoin="round"/>
<path d="M286.75 46.6785C287.13 46.0279 287.69 45.3171 288.42 44.5263C288.96 43.9557 289.35 43.4752 289.6 43.0748C289.85 42.6844 289.98 42.2439 289.98 41.7434C289.98 41.0327 289.74 40.4821 289.26 40.0717C288.78 39.6613 288.14 39.451 287.35 39.451C286.56 39.451 285.91 39.6412 285.32 40.0116C284.73 40.382 284.23 40.9025 283.82 41.5732L280.87 39.5411C281.55 38.3199 282.47 37.3689 283.63 36.7082C284.79 36.0375 286.17 35.7072 287.76 35.7072C289.63 35.7072 291.12 36.1776 292.25 37.1086C293.38 38.0396 293.94 39.3409 293.94 41.0027C293.94 41.7835 293.83 42.4742 293.61 43.0648C293.39 43.6554 293.12 44.1559 292.81 44.5664C292.49 44.9768 292.08 45.4473 291.58 45.9878C290.98 46.6185 290.54 47.149 290.26 47.5795C289.98 48.0099 289.85 48.5305 289.85 49.1411H286.17C286.17 48.1501 286.36 47.3292 286.74 46.6785H286.75ZM286.36 55.3576C285.91 54.9071 285.69 54.3565 285.69 53.7058C285.69 53.0552 285.91 52.5146 286.35 52.0742C286.79 51.6337 287.35 51.4235 288.03 51.4235C288.71 51.4235 289.27 51.6437 289.71 52.0742C290.15 52.5146 290.37 53.0552 290.37 53.7058C290.37 54.3565 290.15 54.9071 289.7 55.3576C289.25 55.808 288.7 56.0383 288.03 56.0383C287.36 56.0383 286.81 55.808 286.36 55.3576Z" fill="#6267DF"/>
<path d="M185.64 82.2553C185.32 76.9398 188.02 72.3851 191.79 71.6443C191.54 71.6243 191.3 71.6243 191.05 71.6443C186.9 71.8945 183.82 76.6895 184.17 82.3554C184.52 88.0213 188.16 92.3958 192.31 92.1456C192.56 92.1256 192.8 92.0955 193.05 92.0455C189.22 91.7752 185.98 87.5808 185.66 82.2653L185.64 82.2553Z" fill="#263238"/>
<path opacity="0.5" d="M192.26 92.0555C196.286 92.0555 199.55 87.484 199.55 81.8449C199.55 76.2057 196.286 71.6343 192.26 71.6343C188.234 71.6343 184.97 76.2057 184.97 81.8449C184.97 87.484 188.234 92.0555 192.26 92.0555Z" fill="white"/>
<path opacity="0.5" d="M196.77 74.6074L185.26 84.758C185.41 85.5588 185.74 86.4697 186.14 87.4307L198.03 76.7296C197.75 75.9989 197.31 75.2981 196.76 74.6074H196.77Z" fill="white"/>
<path opacity="0.5" d="M195.21 72.8956L184.979 82.5757L185.07 83.4366L195.939 73.6564C195.659 72.9257 195.7 73.1759 195.21 72.8956Z" fill="white"/>
<path d="M200.67 81.3344C200.32 75.6786 196.68 71.294 192.53 71.5443C192.28 71.5643 192.04 71.5943 191.79 71.6444C195.62 71.9146 198.86 76.109 199.18 81.4245C199.51 86.74 196.57 91.3148 192.8 92.0556C193.05 92.0756 193.53 92.0556 193.78 92.0556C197.93 91.8053 201.01 87.0103 200.66 81.3444L200.67 81.3344Z" fill="#263238"/>
<path d="M191.34 92.0555H193.44V106.931C193.44 107.502 192.98 107.962 192.41 107.962H192.37C191.8 107.962 191.34 107.502 191.34 106.931V92.0455V92.0555Z" fill="#263238"/>
<path d="M212.989 119.414L204.639 132.538L195.589 108.122L189.609 109.504C189.609 109.504 192.439 139.715 197.139 144.39C200.599 147.823 205.639 148.084 209.249 145.241C212.799 142.438 224.599 127.642 224.599 127.642L212.979 119.414H212.989Z" fill="#B97964"/>
<path d="M189.66 110.655C189.66 110.655 186.85 101.375 186.72 100.354C186.59 99.3331 193.75 93.9475 194.95 93.3969C196.15 92.8463 196.66 94.7683 196.19 95.389C196.19 95.389 196.26 95.439 196.37 95.5191C197.62 96.4501 197.78 98.272 196.74 99.4332C196.74 99.4332 197.08 99.5533 197.36 100.294C197.89 101.696 196.5 103.197 196.5 103.197C196.5 103.197 197.66 108.763 196.3 109.494C194.87 110.264 193.71 110.835 193.69 110.685L189.65 110.655H189.66Z" fill="#B97964"/>
<path d="M191.79 105.86L193.71 104.428V107.722C193.71 108.363 193.28 108.883 192.75 108.883C192.22 108.883 191.79 108.363 191.79 107.722V105.86Z" fill="#263238"/>
<path d="M245.579 338.542L246.879 352.196L257.129 353.317L258.169 338.642L245.579 338.542Z" fill="#B97964"/>
<path d="M244.659 350.013C244.639 349.473 245.109 349.042 245.629 349.062L248.749 349.183C249.539 349.193 250.339 350.664 250.799 351.315C252.769 354.138 254.289 353.107 256.509 350.504C257.899 350.354 258.249 351.985 258.359 352.426L260.829 362.126C261.049 362.937 260.579 363.768 259.779 363.988C259.639 364.028 259.489 364.048 259.349 364.038C255.119 363.978 253.119 363.948 247.859 363.878L231.769 363.658C227.379 363.598 226.539 359.073 228.349 358.682C236.499 356.961 242.279 354.598 244.829 352.226C245.179 351.915 244.699 350.994 244.659 350.013Z" fill="#263238"/>
<path d="M243.149 353.007C244.349 353.187 245.449 353.938 246.079 354.989" stroke="white" stroke-width="0.5" stroke-linecap="round" stroke-linejoin="round"/>
<path d="M240.839 354.348C242.039 354.528 243.139 355.279 243.769 356.33" stroke="white" stroke-width="0.5" stroke-linecap="round" stroke-linejoin="round"/>
<path d="M237.999 355.709C239.199 355.89 240.299 356.64 240.929 357.691" stroke="white" stroke-width="0.5" stroke-linecap="round" stroke-linejoin="round"/>
<path d="M328.87 317.269L339.91 325.188L347.56 318.18L337.28 307.78L328.87 317.269Z" fill="#B97964"/>
<path d="M336.7 325.538C336.28 325.198 336.27 324.557 336.63 324.167L338.74 321.844C339.26 321.244 340.88 321.584 341.66 321.654C345.05 321.984 345.26 320.132 344.76 316.719C345.55 315.548 347 316.348 347.4 316.549L356.25 320.983C356.99 321.344 357.31 322.255 356.96 323.005C356.9 323.136 356.82 323.266 356.72 323.376C353.93 326.599 352.62 328.121 349.15 332.135L338.55 344.398C335.66 347.741 331.73 345.439 332.61 343.787C336.61 336.379 338.6 330.373 338.48 326.859C338.48 326.379 337.48 326.159 336.72 325.538H336.7Z" fill="#263238"/>
<path d="M338.1 328.591C339.01 327.79 340.29 327.43 341.48 327.63" stroke="white" stroke-width="0.5" stroke-linecap="round" stroke-linejoin="round"/>
<path d="M337.6 331.254C338.51 330.453 339.79 330.093 340.98 330.293" stroke="white" stroke-width="0.5" stroke-linecap="round" stroke-linejoin="round"/>
<path d="M336.77 334.337C337.68 333.536 338.96 333.176 340.15 333.376" stroke="white" stroke-width="0.5" stroke-linecap="round" stroke-linejoin="round"/>
<path d="M232.29 180.587C232.29 180.587 240.46 284.996 240.53 285.587L245.64 346.7H258.91C258.91 346.7 259 343.176 259.69 338.541C265.74 297.909 259.54 284.776 259.54 284.776C259.54 284.776 264.87 206.324 266.74 200.418C266.93 199.797 260.58 154.851 232.3 180.587H232.29Z" fill="#263238"/>
<path d="M232.09 180.457L232.46 181.068C237.93 188.476 248.29 196.364 253.71 203.131L255.59 207.405C255.59 207.405 295.02 176.804 269.39 164.19C268.32 163.67 260.48 159.466 260.48 159.466C253.69 157.794 232.09 180.457 232.09 180.457Z" fill="#263238"/>
<path d="M291.01 207.505C293.16 220.869 299.82 255.395 303.6 268.389C303.6 268.389 315.22 275.046 321.79 282.493L342.76 312.044L333.4 320.453L295.16 292.454C286.51 285.937 283.01 281.112 279.62 274.755C271.32 259.239 267.23 239.469 262.27 223.842C259.98 216.595 251.16 193.261 251.92 185.763C252.92 175.612 253.28 159.185 265.61 164.771C277.4 168.235 284.39 170.447 291.02 207.515L291.01 207.505Z" fill="#263238"/>
<path opacity="0.2" d="M261.69 227.336L251.99 191.479L240.93 187.785L249.56 195.843L261.69 227.336Z" fill="black"/>
<path d="M217.52 113.848C213.93 116.821 207.59 126.982 207.59 126.982L221.87 135.08C221.87 135.08 229.17 124.439 228.42 119.714C227.64 114.789 222.92 111.476 217.52 113.848Z" fill="#263238"/>
<path opacity="0.5" d="M217.52 113.848C213.93 116.821 207.59 126.982 207.59 126.982L221.87 135.08C221.87 135.08 229.17 124.439 228.42 119.714C227.64 114.789 222.92 111.476 217.52 113.848Z" fill="white"/>
<path opacity="0.3" d="M216.75 131.877V121.706C216.75 121.706 212.59 133.849 213.55 136.031C214.5 138.214 214.89 139.345 214.89 139.345L216.49 137.493L216.76 131.877H216.75Z" fill="black"/>
<path d="M269.04 157.924C265.97 154.4 263.96 150.076 263.25 145.451C262.17 138.404 260.69 128.543 260.85 127.773L261.33 108.763C257.13 104.559 241.55 104.519 241.55 104.519L231.1 107.191C231.1 107.191 227.22 108.903 223.96 110.725C219.62 113.158 217.33 113.288 216.74 116.081C216.74 116.081 215.89 125.25 215.65 134.53C215.57 137.843 230.94 168.315 231.13 174.051V183.39C253.41 194.622 276.82 166.853 276.82 166.853L269.04 157.924Z" fill="#263238"/>
<path opacity="0.5" d="M269.04 157.924C265.97 154.4 263.96 150.076 263.25 145.451C262.17 138.404 260.69 128.543 260.85 127.773L261.33 108.763C257.13 104.559 241.55 104.519 241.55 104.519L231.1 107.191C231.1 107.191 227.22 108.903 223.96 110.725C219.62 113.158 217.33 113.288 216.74 116.081C216.74 116.081 215.89 125.25 215.65 134.53C215.57 137.843 230.94 168.315 231.13 174.051V183.39C253.41 194.622 276.82 166.853 276.82 166.853L269.04 157.924Z" fill="white"/>
<path opacity="0.3" d="M261.709 135.18C261.709 135.18 251.939 126.351 252.439 122.217L260.739 126.682L261.299 132.277L261.709 135.18Z" fill="black"/>
<path d="M268.869 117.062C269.099 117.402 283.239 133.338 288.919 139.365C290.139 140.656 291.079 142.188 291.699 143.849L303.359 176.473L296.059 178.655L279.299 147.103L258.229 129.254L268.879 117.052L268.869 117.062Z" fill="#B97964"/>
<path d="M295.779 176.053C295.779 176.053 293.829 178.285 294.019 180.728C294.209 183.17 293.709 185.172 293.979 186.984C294.249 188.796 295.569 186.714 296.049 185.463C296.529 184.211 297.079 182.8 297.959 183.31C298.839 183.821 303.219 191.409 304.519 191.979C305.819 192.55 305.499 191.098 305.499 191.098C305.499 191.098 306.609 192.91 307.449 192.67C307.669 192.61 308.069 192.11 307.689 191.199C306.839 189.156 304.839 184.972 304.839 184.972C304.949 185.212 307.789 190.208 308.319 190.898C308.999 191.799 309.789 191.879 310.299 191.469C311.029 190.878 307.709 184.572 307.759 184.211C307.759 184.211 309.549 187.905 310.749 187.965C311.959 188.025 310.959 185.643 309.679 183.701C308.509 181.929 306.669 178.135 305.299 176.443C303.619 174.361 302.019 173.34 299.589 173.971C297.159 174.601 295.789 176.063 295.789 176.063L295.779 176.053Z" fill="#B97964"/>
<path d="M258.65 107.331C263.39 107.632 271.99 119.494 271.99 119.494L260.86 132.087C260.86 132.087 250.42 122.958 250.24 116.851C250.1 111.686 252.64 106.931 258.66 107.331H258.65Z" fill="#263238"/>
<path opacity="0.5" d="M258.65 107.331C263.39 107.632 271.99 119.494 271.99 119.494L260.86 132.087C260.86 132.087 250.42 122.958 250.24 116.851C250.1 111.686 252.64 106.931 258.66 107.331H258.65Z" fill="white"/>
<path d="M224.44 62.0144C217.94 64.7072 215.13 69.8625 214.35 73.8467C213.9 79.3424 214.92 83.5067 215.24 88.9924L236.15 60.4327C232.71 60.4327 231.37 59.4617 224.45 62.0144H224.44Z" fill="#263238"/>
<path d="M232.13 60.6429C238.22 59.1513 242.99 63.2856 245.7 66.0285C248.53 69.6723 249.64 74.3771 248.75 78.9719C247.83 83.2464 246.71 88.4217 243.65 90.1335C241.93 91.1345 239.88 91.3748 238 90.7942L221.21 67.1396C224.25 64.0865 228.01 61.8541 232.12 60.6329L232.13 60.6429Z" fill="#263238"/>
<path d="M240.26 95.8795C240.26 95.7193 240.25 95.5491 240.22 95.389C240.12 94.6482 239.8 93.9675 239.3 93.437C237.97 91.9354 235.68 91.8153 234.17 93.1867L228.36 95.7694C228.36 95.8595 228.35 95.9396 228.34 96.0397L229.39 104.599C229.55 107.151 226.67 109.243 225.06 110.365C224.09 111.115 222.16 118.083 228.63 123.238C230.54 124.769 233.49 122.267 235.41 120.605C243.3 113.007 243.13 105.99 243.13 105.99C240.21 103.317 240.01 101.525 240.26 95.8695V95.8795Z" fill="#B97964"/>
<path opacity="0.2" d="M226.23 95.2689C226.28 95.1888 226.32 95.0987 226.34 95.0086L232.64 94.428C234.52 93.6572 236.64 94.5381 237.38 96.41C237.67 96.9306 238.4 93.2668 237.64 98.0518V98.1218L229.3 103.978C229.3 103.978 228.29 97.0307 228.24 97.0007C228.19 96.9806 226.23 95.2589 226.23 95.2589V95.2689Z" fill="black"/>
<path d="M245.34 79.6026C242.99 89.4328 242.21 93.6272 236.39 98.0718C227.63 104.729 216.33 100.254 215.71 90.0234C215.23 80.8339 219.11 66.3188 229.34 63.616C239.58 60.9232 247.69 69.7524 245.34 79.6026Z" fill="#B97964"/>
<path d="M247.86 88.9223C246.41 90.8543 244.31 91.9455 242.49 92.1857C239.75 92.5561 238.93 88.1215 240.19 85.5488C241.32 83.2364 244.14 81.9351 246.65 82.7459C249.13 83.5468 249.53 86.71 247.86 88.9223Z" fill="#B97964"/>
<path opacity="0.2" d="M242.311 87.7611C242.501 86.8101 243.071 85.9392 243.871 85.3886C244.671 84.838 245.681 84.6178 246.621 84.778" stroke="black" stroke-width="0.5" stroke-linecap="round" stroke-linejoin="round"/>
<path d="M231.63 81.3244C231.44 82.3855 230.75 83.1964 230.09 83.1363C229.43 83.0763 229.04 82.1653 229.23 81.1042C229.42 80.0431 230.11 79.2323 230.77 79.2923C231.43 79.3524 231.82 80.2633 231.63 81.3244Z" fill="#263238"/>
<path d="M221.73 80.1933C221.55 81.2244 220.86 82.0052 220.2 81.9451C219.54 81.8851 219.15 81.0042 219.34 79.9731C219.52 78.942 220.21 78.1612 220.87 78.2213C221.53 78.2813 221.92 79.1622 221.73 80.1933Z" fill="#263238"/>
<path d="M234.2 77.8408C234.07 77.8408 233.95 77.7907 233.86 77.6906C232.5 76.0789 230.69 76.3893 230.67 76.3993C230.4 76.4493 230.16 76.2691 230.14 75.9989C230.12 75.7286 230.32 75.4683 230.59 75.4182C230.68 75.3982 232.95 75.0078 234.64 77.0099C234.81 77.2101 234.77 77.5204 234.56 77.7106C234.46 77.8007 234.33 77.8508 234.21 77.8508L234.2 77.8408Z" fill="#263238"/>
<path d="M219.06 74.7676C218.96 74.7175 218.89 74.6375 218.86 74.5173C218.8 74.2771 218.95 73.9968 219.19 73.8967C221.65 72.8556 223.22 74.0268 223.29 74.0769C223.48 74.217 223.49 74.5073 223.32 74.7276C223.15 74.9478 222.86 75.0078 222.67 74.8677C222.61 74.8176 221.37 73.9367 219.42 74.7576C219.29 74.8076 219.17 74.8076 219.06 74.7576V74.7676Z" fill="#263238"/>
<path d="M224.49 80.0031C224.49 80.0031 222.43 83.5968 220.35 85.759C219.99 86.1394 220.1 86.7601 220.56 86.9903C221.74 87.5809 223.24 87.3307 223.24 87.3307L224.48 80.0031H224.49Z" fill="#A24E3F"/>
<path d="M231.14 79.3824L228.91 78.5815C228.91 78.5815 229.95 80.4435 231.14 79.3824Z" fill="#263238"/>
<path d="M221.11 78.2713L218.88 77.4705C218.88 77.4705 219.92 79.3324 221.11 78.2713Z" fill="#263238"/>
<path d="M223.3 90.1636C223.92 91.2447 224.61 93.3169 224.61 93.3169C224.81 93.2868 225.01 93.2468 225.21 93.2068C227.91 92.6962 229.01 91.565 229.42 90.4739C229.64 89.8733 229.64 89.2727 229.58 88.8022C229.51 88.2516 229.34 87.8812 229.34 87.8812C228.05 89.0024 225.57 89.6731 224.23 89.9834C223.67 90.1135 223.31 90.1736 223.31 90.1736L223.3 90.1636Z" fill="#263238"/>
<path d="M224.22 89.9734L224.63 90.8944C227.17 90.4038 228.91 89.7231 229.57 88.8022C229.5 88.2516 229.33 87.8812 229.33 87.8812C228.04 89.0024 225.56 89.6731 224.22 89.9834V89.9734Z" fill="white"/>
<path d="M225.21 93.2067C227.91 92.6962 229.01 91.565 229.42 90.4739C228.51 90.6841 227.42 91.0345 226.52 91.6351C225.83 92.0856 225.44 92.6561 225.21 93.2067Z" fill="#DE5753"/>
<path d="M241.42 81.3345C241.42 81.3345 237.2 73.7767 238.22 68.2309C238.22 68.2309 219.12 59.7721 217.2 77.5606C217.2 77.5606 216.12 61.634 233.05 62.4249C249.98 63.2157 248.71 85.4187 239.65 91.455C239.64 91.3749 244.01 86.0594 241.42 81.3345Z" fill="#263238"/>
<path d="M225.131 63.1055C222.521 64.7572 220.491 67.1997 219.331 70.0527C218.871 72.2049 221.441 74.3271 221.441 74.3271L226.001 70.343L225.111 74.4573C231.071 74.9678 235.101 72.5253 238.061 68.441L236.081 61.9743C236.081 61.9743 227.421 61.7941 225.131 63.0955V63.1055Z" fill="#263238"/>
<path d="M289.25 79.0121C287.96 80.2434 286.19 80.824 284.51 80.5737C285.96 79.0421 286.56 76.5896 286.02 74.4573C280.4 76.6897 273.69 79.4726 268.31 76.6096C265.84 75.2982 264.25 72.4653 262.28 70.3531C260.31 68.2409 258.16 66.1687 255.52 65.3279C252.89 64.497 247.18 66.6592 245.75 69.2519L245.41 74.3572C248.13 73.8367 252.41 75.8188 253.6 78.5916C254.8 81.3645 255.86 83.3566 257.35 85.9493C259.24 89.2227 261.09 91.2848 264.3 92.7163C265.76 93.367 269.08 94.0877 274.01 93.7674C277.92 93.5171 281.94 92.6662 285.18 90.2337C288.43 87.8012 290.63 83.0863 289.26 79.0021L289.25 79.0121Z" fill="#263238"/>
</g>
<defs>
<clipPath id="clip0_19_556">
<rect width="500" height="443" fill="white"/>
</clipPath>
</defs>
</svg>
