<svg width="621" height="576" viewBox="0 0 621 576" fill="none" xmlns="http://www.w3.org/2000/svg">
<g clip-path="url(#clip0_19_1032)">
<path d="M319.309 3.44341C311.912 -0.0525955 303.688 -0.446882 298.459 0.354834C293.558 1.10398 286.477 2.97027 280.512 7.63599C276.807 10.5406 274.048 14.1549 272.314 18.3737C270.265 23.3812 269.634 29.2823 270.448 35.9195C270.567 36.9183 271.079 37.7989 271.88 38.4035C272.682 39.0081 273.68 39.2709 274.679 39.1132L287.515 37.1549C289.328 36.8789 290.681 35.2886 290.655 33.4618C290.615 29.348 291.969 22.1983 301.546 20.5686C308.851 19.3332 312.674 24.1697 313.975 26.312C316.103 29.7949 316.379 34.2635 314.711 38.2721C312.149 44.4229 306 46.2498 302.558 46.7755C298.603 47.3932 295.871 51.0995 296.475 55.0292L298.577 68.8555C298.879 70.8795 300.771 72.2596 302.795 71.9573L315.302 70.0515C317.325 69.7493 318.705 67.8567 318.403 65.8327L317.956 62.9281C317.956 62.8624 317.982 62.7967 318.048 62.7572C320.728 61.3378 325.852 58.0915 330.056 52.4138C335.416 45.1721 337.387 36.5766 335.903 26.864C333.787 12.972 325.694 6.43999 319.283 3.41713L319.309 3.44341Z" fill="#EBEBEB"/>
<path d="M310.217 74.4019L309.126 74.5727C303.897 75.3745 300.284 80.2767 301.086 85.5076C301.887 90.7385 306.788 94.3528 312.017 93.5511L313.107 93.3802C318.336 92.5785 321.949 87.6762 321.148 82.4453C320.346 77.2145 315.446 73.6002 310.217 74.4019Z" fill="#EBEBEB"/>
<path d="M61.6447 226.531C57.9266 221.878 52.6845 219 49.019 217.843C45.5768 216.766 40.3478 215.714 34.9612 216.858C31.6109 217.567 28.6549 219.052 26.1718 221.26C23.2288 223.876 20.9296 227.53 19.3531 232.13C19.1166 232.813 19.1691 233.562 19.4976 234.206C19.826 234.863 20.391 235.35 21.1004 235.56L30.1132 238.386C31.3876 238.78 32.7802 238.175 33.3452 236.979C34.6327 234.272 37.799 230.04 44.5914 232.051C49.7547 233.575 50.7138 237.965 50.8846 239.779C51.1605 242.736 49.9123 245.746 47.5475 247.822C43.9082 251.029 39.3099 250.24 36.8925 249.491C34.1072 248.624 31.138 250.175 30.2708 252.935L27.2228 262.634C26.7761 264.054 27.5644 265.565 28.9833 266.012L37.7596 268.772C39.1785 269.219 40.6894 268.43 41.1361 267.011L41.7798 264.974C41.7798 264.974 41.8455 264.895 41.885 264.895C44.0922 264.816 48.4803 264.343 53.0392 261.977C58.8594 258.954 62.8928 253.973 65.0343 247.152C68.0955 237.4 64.8898 230.539 61.671 226.504L61.6447 226.531Z" fill="#EBEBEB"/>
<path d="M33.0163 269.994L32.2543 269.758C28.5756 268.601 24.6604 270.651 23.5043 274.331C22.3481 278.011 24.3977 281.928 28.0764 283.085L28.8384 283.321C32.517 284.478 36.4322 282.427 37.5884 278.747C38.7445 275.067 36.695 271.151 33.0163 269.994Z" fill="#EBEBEB"/>
<path d="M451.033 541.434C483.011 540.041 523.569 529.829 548.374 508.958C514.136 509.839 479.504 521.391 451.033 541.434Z" fill="#EBEBEB"/>
<path d="M473.275 503.596C505.254 502.203 545.811 491.991 570.616 471.12C536.378 472 501.746 483.553 473.275 503.596Z" fill="#EBEBEB"/>
<path d="M497.186 467.558C529.164 466.165 569.721 455.953 594.526 435.082C560.288 435.963 525.656 447.515 497.186 467.558Z" fill="#EBEBEB"/>
<path d="M523.869 430.39C555.677 425.093 594.881 410.058 616.887 386.493C582.741 391.579 549.659 407.193 523.869 430.39Z" fill="#EBEBEB"/>
<path d="M547.334 402.961C575.581 386.795 607.047 359.208 618.766 330.083C588.207 346.893 562.798 372.811 547.334 402.961Z" fill="#EBEBEB"/>
<path d="M535.956 415.933C544.654 384.206 547.36 341.544 534.59 311.289C524.684 345.093 525.17 382.313 535.956 415.933Z" fill="#EBEBEB"/>
<path d="M513.333 446.253C519.495 412.594 518.405 368.04 502.297 337.601C495.058 373.508 498.987 412.161 513.333 446.253Z" fill="#EBEBEB"/>
<path d="M486.374 483.448C492.536 449.789 491.446 405.235 475.338 374.796C468.099 410.702 472.028 449.355 486.374 483.448Z" fill="#EBEBEB"/>
<path d="M457.628 530.565C463.79 496.906 462.7 452.352 446.592 421.913C439.353 457.819 443.281 496.472 457.628 530.565Z" fill="#EBEBEB"/>
<path d="M446.67 547.953C442.033 556.509 438.407 563.501 436.015 568.377C434.846 570.743 433.926 572.622 433.256 574.002C432.98 574.594 432.757 575.08 432.56 575.474C432.416 575.816 432.35 575.987 432.363 576C432.376 576 432.481 575.855 432.665 575.54C432.875 575.159 433.138 574.686 433.467 574.121C434.189 572.767 435.175 570.927 436.423 568.601C438.945 563.79 442.69 556.864 447.419 548.374C452.123 539.87 457.93 529.855 464.538 518.829C471.199 507.841 478.727 495.881 486.926 483.527C503.361 458.844 519.443 437.316 531.451 422.044C537.455 414.395 542.382 408.271 545.824 404.065C547.479 402.015 548.793 400.385 549.752 399.189C550.159 398.676 550.488 398.243 550.751 397.901C550.974 397.612 551.079 397.454 551.066 397.441C551.053 397.428 550.908 397.559 550.659 397.822C550.37 398.151 550.002 398.545 549.568 399.031C548.557 400.188 547.19 401.765 545.456 403.763C541.896 407.876 536.864 413.935 530.768 421.519C518.575 436.672 502.363 458.148 485.901 482.87" fill="#E0E0E0"/>
<path d="M391.477 326.693C403.143 297.87 410.488 257.903 402.053 227.556C389.02 258.179 385.262 293.441 391.477 326.693Z" fill="#EBEBEB"/>
<path d="M367.041 291.759C378.708 262.937 386.052 222.969 377.617 192.622C364.584 223.245 360.827 258.507 367.041 291.759Z" fill="#EBEBEB"/>
<path d="M344.863 256.089C356.53 227.267 363.874 187.299 355.44 156.952C342.407 187.575 338.649 222.838 344.863 256.089Z" fill="#EBEBEB"/>
<path d="M322.803 217.515C330.949 187.26 333.485 146.543 321.555 117.589C312.28 149.816 312.726 185.354 322.803 217.515Z" fill="#EBEBEB"/>
<path d="M308.036 185.722C305.146 154.232 293.479 115.289 272.484 93.1831C275.007 126.973 287.646 159.883 308.036 185.722Z" fill="#EBEBEB"/>
<path d="M314.908 200.994C290.392 180.504 253.803 160.908 221.93 159.988C247.799 182.384 280.867 196.972 314.908 200.994Z" fill="#EBEBEB"/>
<path d="M332.553 233.234C305.318 214.203 265.523 197.209 232.139 199.154C260.937 220.038 296.647 232.156 332.553 233.234Z" fill="#EBEBEB"/>
<path d="M354.52 272.058C327.285 253.027 287.489 236.033 254.105 237.978C282.904 258.862 318.614 270.98 354.52 272.058Z" fill="#EBEBEB"/>
<path d="M384.54 316.468C357.304 297.437 317.509 280.443 284.125 282.388C312.924 303.272 348.633 315.39 384.54 316.468Z" fill="#EBEBEB"/>
<path d="M395.497 333.172C401.186 340.716 405.889 346.749 409.24 350.836C410.869 352.821 412.143 354.385 413.089 355.541C413.496 356.028 413.838 356.422 414.114 356.75C414.35 357.013 414.482 357.145 414.495 357.132C414.508 357.132 414.416 356.961 414.206 356.672C413.956 356.33 413.654 355.909 413.273 355.397C412.367 354.214 411.145 352.597 409.594 350.56C406.362 346.381 401.764 340.282 396.167 332.686C390.544 325.102 384.041 315.929 376.972 305.638C369.957 295.321 362.429 283.847 354.822 271.611C339.647 247.126 327.126 224.231 318.481 207.447C314.146 199.062 310.717 192.228 308.405 187.483C307.262 185.196 306.355 183.37 305.685 182.042C305.396 181.477 305.146 181.017 304.949 180.636C304.778 180.32 304.686 180.163 304.66 180.176C304.647 180.176 304.7 180.36 304.844 180.688C305.015 181.083 305.225 181.556 305.475 182.147C306.092 183.501 306.933 185.354 307.997 187.68C310.191 192.491 313.515 199.378 317.746 207.828C326.22 224.717 338.635 247.717 353.836 272.229" fill="#E0E0E0"/>
<path d="M614.076 213.848C608.689 207.447 601.227 203.57 596.024 202.085C591.163 200.692 583.78 199.404 576.251 201.204C571.574 202.322 567.475 204.503 564.059 207.684C560.013 211.456 556.925 216.674 554.849 223.192C554.534 224.165 554.639 225.203 555.125 226.11C555.611 227.017 556.426 227.674 557.424 227.963L570.182 231.617C571.982 232.13 573.913 231.236 574.675 229.527C576.383 225.69 580.692 219.631 590.296 222.207C597.614 224.178 599.099 230.303 599.401 232.839C599.887 236.979 598.245 241.251 594.986 244.26C589.981 248.887 583.491 247.954 580.075 246.981C576.133 245.864 572.021 248.138 570.904 252.054L566.963 265.789C566.385 267.799 567.554 269.889 569.551 270.467L581.98 274.029C583.99 274.607 586.079 273.438 586.657 271.44L587.485 268.549C587.498 268.483 587.563 268.43 587.642 268.43C590.743 268.246 596.891 267.431 603.198 263.949C611.265 259.506 616.756 252.356 619.528 242.71C623.483 228.896 618.753 219.381 614.076 213.835V213.848Z" fill="#EBEBEB"/>
<path d="M575.398 275.895L574.308 275.58C569.105 274.095 563.666 277.105 562.168 282.309C560.683 287.514 563.692 292.955 568.895 294.453L569.985 294.769C575.188 296.254 580.627 293.244 582.112 288.04C583.596 282.835 580.588 277.394 575.385 275.895H575.398Z" fill="#EBEBEB"/>
<path d="M193.039 326.233C186.838 321.593 179.297 319.674 174.291 319.425C169.614 319.188 162.69 319.582 156.279 322.789C152.298 324.774 149.053 327.613 146.649 331.201C143.798 335.459 142.103 340.808 141.604 347.117C141.525 348.063 141.84 348.983 142.458 349.693C143.088 350.416 143.955 350.836 144.915 350.876L157.186 351.493C158.92 351.585 160.47 350.363 160.799 348.668C161.534 344.843 164.149 338.482 173.345 338.784C180.348 339.021 182.976 344.225 183.79 346.46C185.104 350.087 184.513 354.28 182.214 357.684C178.68 362.901 172.623 363.427 169.338 363.269C165.555 363.098 162.323 366.016 162.125 369.775L161.455 382.984C161.363 384.916 162.848 386.559 164.779 386.664L176.735 387.268C178.666 387.36 180.309 385.875 180.414 383.943L180.558 381.17C180.558 381.104 180.611 381.052 180.677 381.025C183.436 380.211 188.796 378.173 193.762 373.718C200.095 368.014 203.55 360.417 204.023 351.138C204.693 337.864 198.426 330.268 193.053 326.246L193.039 326.233Z" fill="#EBEBEB"/>
<path d="M171.191 390.304L170.14 390.252C165.134 390.002 160.865 393.866 160.615 398.873C160.365 403.881 164.228 408.152 169.234 408.402L170.285 408.455C175.29 408.704 179.56 404.84 179.81 399.833C180.059 394.825 176.197 390.554 171.191 390.304Z" fill="#EBEBEB"/>
<path d="M129.227 560.215H140.578C147.265 536.4 150.471 509.904 146.096 487.745C135.848 509.957 130.107 534.968 129.227 560.215Z" fill="#EBEBEB"/>
<path d="M127.071 449.71C113.119 479.965 107.482 515.411 111.174 549.557C111.306 549.819 111.424 550.095 111.555 550.358C124.181 521.496 133.299 481.214 127.071 449.71Z" fill="#EBEBEB"/>
<path d="M97.1177 407.14C86.8831 438.328 84.9912 473.196 91.6653 505.686C92.0726 506.671 92.4931 507.683 92.9266 508.695C102.163 478.23 106.682 437.237 97.1308 407.14H97.1177Z" fill="#EBEBEB"/>
<path d="M77.6064 470.949C77.5013 470.607 77.4487 470.423 77.4619 470.41C77.475 470.41 77.567 470.568 77.7115 470.896C77.8823 471.304 78.0794 471.79 78.329 472.382C78.5261 472.881 78.7625 473.485 79.0122 474.116C79.4589 474.839 79.8924 475.588 80.3654 476.298C79.4326 443.756 70.5906 403 51.9082 378.988C52.3418 412.476 61.7093 445.701 78.2896 472.933C78.237 472.789 78.1713 472.618 78.1319 472.473C77.9217 471.856 77.7509 471.356 77.6195 470.936L77.6064 470.949Z" fill="#EBEBEB"/>
<path d="M85.4373 492.319C85.3453 492.069 85.2533 491.833 85.1482 491.583C63.0236 469.293 29.8498 447.397 0 444.505C23.1494 468.991 53.5247 485.971 85.4373 492.319Z" fill="#EBEBEB"/>
<path d="M100.926 526.662C100.808 526.556 100.677 526.451 100.559 526.346C100.598 526.438 100.637 526.543 100.69 526.635C100.769 526.635 100.848 526.662 100.94 526.662H100.926Z" fill="#EBEBEB"/>
<path d="M7.44869 485.393C33.252 508.327 65.9265 522.89 99.4813 526.504C99.2448 525.952 99.0083 525.413 98.7718 524.874C74.0327 504.306 38.3758 485.472 7.43555 485.393H7.44869Z" fill="#EBEBEB"/>
<path d="M26.0918 526.662C42.9874 541.684 62.8391 553.092 83.9653 560.215H109.926C85.8046 542.091 54.0235 526.727 26.0918 526.662Z" fill="#EBEBEB"/>
<path d="M88.3018 499.627C91.2316 507.026 94.7526 515.556 98.786 524.861C99.0225 525.4 99.259 525.939 99.4955 526.491C104.054 536.953 109.27 548.347 115.038 560.215H116.299C114.67 556.89 113.093 553.605 111.556 550.358C111.425 550.095 111.307 549.819 111.175 549.557C107.405 541.566 103.897 533.877 100.678 526.635C100.638 526.543 100.599 526.438 100.547 526.346C97.7744 520.077 95.2256 514.163 92.9264 508.682C92.4928 507.67 92.0724 506.658 91.6651 505.672C90.7455 503.464 89.8652 501.322 89.0244 499.285C85.3983 490.387 82.521 483.159 80.5897 478.138C79.9722 476.574 79.4598 475.26 79 474.116C78.7504 473.486 78.5139 472.881 78.3168 472.382C78.0672 471.79 77.8701 471.291 77.6993 470.896C77.5548 470.568 77.476 470.397 77.4497 470.41C77.4365 470.41 77.476 470.594 77.5942 470.949C77.7387 471.356 77.8964 471.869 78.1066 472.487C78.1591 472.631 78.2117 472.802 78.2642 472.947C78.7504 474.327 79.381 476.114 80.1693 478.335C81.3911 481.792 83.0728 486.274 85.1355 491.596C85.2275 491.833 85.3194 492.083 85.4245 492.332C86.3179 494.632 87.2639 497.064 88.2886 499.64L88.3018 499.627Z" fill="#E0E0E0"/>
<path d="M595.986 559.703C595.986 559.9 466.339 560.058 306.461 560.058C146.583 560.058 16.8965 559.9 16.8965 559.703C16.8965 559.506 146.517 559.348 306.461 559.348C466.404 559.348 595.986 559.506 595.986 559.703Z" fill="#263238"/>
<path d="M85.1579 138.996C106.952 130.552 117.778 106.033 109.337 84.2312C100.897 62.4291 76.3871 51.5996 54.5929 60.043C32.7986 68.4864 21.9731 93.0052 30.4134 114.807C38.8537 136.609 63.3637 147.439 85.1579 138.996Z" fill="white"/>
<path d="M112.199 99.5178C112.199 99.5178 112.172 99.2813 112.133 98.8344C112.107 98.3613 112.054 97.691 112.001 96.8235C111.975 96.3767 111.949 95.8904 111.909 95.3384C111.857 94.7995 111.739 94.2081 111.647 93.5641C111.542 92.9201 111.436 92.2367 111.318 91.5007C111.226 90.7647 110.95 90.0024 110.766 89.1875C110.018 85.915 108.494 82.0509 106.076 77.9635C103.646 73.8892 100.138 69.6178 95.3554 66.0035C94.7511 65.5566 94.1467 65.1098 93.5292 64.6498C92.8854 64.2292 92.2154 63.8481 91.5453 63.4406C90.8622 63.0595 90.2184 62.5863 89.4958 62.2578C88.7732 61.916 88.0506 61.5612 87.3149 61.2063C86.947 61.0355 86.5791 60.8515 86.1981 60.6806C85.8171 60.536 85.423 60.3915 85.0288 60.26C84.2406 59.9709 83.4523 59.6818 82.664 59.3926C81.8625 59.1298 81.0217 58.9589 80.1809 58.7223C79.34 58.5252 78.5123 58.236 77.6321 58.144C75.8978 57.8943 74.1373 57.5395 72.3111 57.5263C71.4046 57.5 70.4849 57.408 69.5653 57.4212C68.6456 57.4738 67.7128 57.5132 66.78 57.5658C66.307 57.592 65.8472 57.592 65.3742 57.6578L63.9684 57.868C63.0356 58.0258 62.0765 58.1309 61.1437 58.328C59.2912 58.8275 57.3599 59.2086 55.5337 59.9709C53.6418 60.5755 51.8682 61.5086 50.042 62.3892C49.1486 62.8755 48.3078 63.4275 47.4275 63.9532C46.994 64.2292 46.5341 64.4658 46.1268 64.7812L44.8918 65.7143C43.1839 66.8841 41.6861 68.3561 40.1227 69.7755C39.4133 70.5509 38.7038 71.3395 37.9812 72.1281L37.4425 72.7195L36.9564 73.3635L35.9973 74.6515L35.0251 75.9395L34.1843 77.3195L33.3434 78.7127L32.923 79.4092L32.5683 80.1452C32.0953 81.1309 31.6223 82.1167 31.1362 83.1155C30.7552 84.1538 30.3742 85.1921 29.9932 86.2304C28.6268 90.4492 27.878 94.931 27.8254 99.5047C27.8911 104.065 28.6268 108.56 29.9932 112.779C30.3742 113.817 30.7552 114.856 31.1362 115.894C31.6092 116.893 32.0953 117.878 32.5683 118.864L32.923 119.6L33.3434 120.297L34.1843 121.69L35.0251 123.07L35.9973 124.371L36.9564 125.659L37.4425 126.303L37.9812 126.894C38.7038 127.683 39.4133 128.472 40.1227 129.247C41.6861 130.666 43.1839 132.125 44.8918 133.308L46.1268 134.241C46.5341 134.557 46.994 134.793 47.4275 135.069C48.3078 135.595 49.1617 136.147 50.042 136.633C51.8682 137.514 53.6418 138.447 55.5337 139.052C57.3599 139.814 59.2912 140.195 61.1437 140.694C62.0897 140.892 63.0356 140.997 63.9684 141.154L65.3742 141.365C65.8472 141.43 66.307 141.417 66.78 141.457C67.7128 141.509 68.6456 141.549 69.5653 141.601C70.4849 141.614 71.4046 141.522 72.3111 141.496C74.1373 141.496 75.8978 141.128 77.6321 140.878C78.5123 140.786 79.34 140.497 80.1809 140.3C81.0086 140.077 81.8625 139.906 82.664 139.63C83.4654 139.341 84.2537 139.052 85.0288 138.762C85.423 138.618 85.804 138.473 86.1981 138.342C86.566 138.171 86.947 137.987 87.3149 137.816C88.0506 137.461 88.7732 137.12 89.4958 136.765C90.2315 136.436 90.8753 135.963 91.5453 135.582C92.2154 135.174 92.8854 134.793 93.5292 134.373C94.1467 133.913 94.7511 133.466 95.3554 133.019C100.138 129.405 103.646 125.146 106.076 121.059C108.494 116.958 110.018 113.094 110.766 109.835C110.95 109.02 111.226 108.271 111.318 107.522C111.436 106.786 111.542 106.102 111.647 105.458C111.739 104.814 111.857 104.236 111.909 103.684C111.936 103.145 111.975 102.646 112.001 102.199C112.054 101.332 112.093 100.661 112.133 100.188C112.159 99.7413 112.199 99.5047 112.199 99.5047C112.199 99.5047 112.199 99.7413 112.199 100.188C112.185 100.661 112.159 101.332 112.12 102.199C112.107 102.646 112.08 103.145 112.054 103.684C112.001 104.223 111.896 104.814 111.817 105.458C111.726 106.102 111.62 106.786 111.515 107.535C111.436 108.284 111.174 109.033 110.99 109.861C110.267 113.16 108.769 117.05 106.365 121.19C103.948 125.317 100.427 129.628 95.6182 133.295C95.0138 133.742 94.4095 134.202 93.792 134.675C93.1482 135.096 92.465 135.49 91.795 135.91C91.1118 136.305 90.4549 136.778 89.7192 137.12C88.9966 137.474 88.2608 137.829 87.5119 138.184C87.1441 138.368 86.7631 138.539 86.3952 138.723C86.0011 138.868 85.6069 139.012 85.2128 139.157C84.4245 139.446 83.6231 139.735 82.8216 140.037C82.0071 140.313 81.1531 140.484 80.3123 140.721C79.4583 140.918 78.6306 141.22 77.7372 141.312C75.9767 141.562 74.203 141.93 72.3637 141.943C71.444 141.982 70.5243 142.074 69.5915 142.061C68.6587 142.022 67.7259 141.969 66.78 141.917C66.307 141.89 65.834 141.89 65.3611 141.825L63.9421 141.614C62.9962 141.457 62.0371 141.352 61.078 141.154C59.1993 140.642 57.2548 140.274 55.4024 139.498C53.4973 138.894 51.6974 137.948 49.8449 137.067C48.9515 136.581 48.0844 136.016 47.191 135.49C46.7575 135.214 46.2845 134.977 45.8772 134.662L44.6159 133.729C42.8817 132.546 41.3708 131.061 39.7811 129.628C39.0585 128.84 38.3359 128.038 37.6133 127.249L37.0747 126.645L36.5886 126.001L35.6163 124.7L34.631 123.385L33.777 121.979L32.923 120.573L32.4895 119.863L32.1216 119.114C31.6355 118.115 31.1625 117.116 30.6764 116.104C30.2954 115.053 29.9012 114.001 29.5202 112.95C28.1276 108.678 27.3787 104.131 27.3262 99.5047C27.3919 94.8784 28.1407 90.3441 29.5202 86.0727C29.9012 85.0212 30.2954 83.9698 30.6764 82.9184C31.1625 81.9195 31.6486 80.9075 32.1216 79.9087L32.4895 79.1595L32.923 78.4498L33.777 77.0435L34.631 75.6372L35.6163 74.3229L36.5886 73.0218L37.0747 72.3778L37.6133 71.7732C38.3359 70.9715 39.0585 70.1829 39.7811 69.3943C41.3708 67.9618 42.8817 66.4766 44.6159 65.2938L45.8641 64.3606C46.2845 64.0452 46.7443 63.8086 47.1779 63.5326C48.0713 63.0069 48.9253 62.4418 49.8318 61.9555C51.6843 61.0749 53.4711 60.1286 55.3892 59.524C57.2417 58.7486 59.1861 58.3806 61.0649 57.868C62.024 57.6709 62.9831 57.5658 63.929 57.408L65.3479 57.1978C65.8209 57.132 66.2939 57.1452 66.7668 57.1058C67.7128 57.0532 68.6456 57.0138 69.5784 56.9612C70.5112 56.9612 71.4309 57.04 72.3505 57.0795C74.1899 57.0926 75.9635 57.4606 77.724 57.7103C78.6043 57.8023 79.4451 58.1046 80.2991 58.3018C81.1399 58.5383 81.9939 58.7092 82.8085 58.9852C83.6099 59.2875 84.4113 59.5766 85.1996 59.8658C85.5938 60.0103 85.9879 60.1549 86.3821 60.2995C86.7631 60.4835 87.1309 60.6543 87.4988 60.8383C88.2345 61.1932 88.9703 61.548 89.706 61.9029C90.4417 62.2446 91.0855 62.7178 91.7818 63.1121C92.4519 63.5326 93.1351 63.9138 93.7788 64.3475C94.3963 64.8075 95.0138 65.2675 95.605 65.7275C100.414 69.3943 103.921 73.7052 106.352 77.8321C108.756 81.9721 110.267 85.8755 110.977 89.1612C111.161 89.9892 111.423 90.7384 111.502 91.4875C111.607 92.2235 111.712 92.9201 111.804 93.5641C111.896 94.2081 112.001 94.7995 112.054 95.3384C112.08 95.8773 112.093 96.3767 112.12 96.8235C112.146 97.691 112.172 98.3613 112.199 98.8344C112.212 99.2944 112.199 99.5178 112.199 99.5178Z" fill="#263238"/>
<path d="M54.825 92.263H62.8655C62.8655 92.263 62.8655 85.5075 69.8813 85.3892C73.5206 85.3235 75.4125 87.7155 76.1745 89.5424C77.0679 91.6715 76.792 94.0898 75.5964 96.0612C74.23 98.3087 71.2477 100.359 65.8216 99.3995V111.202H73.7702V106.917C73.7702 106.917 84.9245 104.039 84.9245 91.7504C84.9245 79.4618 74.3877 77.2538 69.8682 77.2538C66.4128 77.2538 54.6673 78.0949 54.8119 92.2761L54.825 92.263Z" fill="#6267DF"/>
<path d="M73.8891 114.264H65.8223V121.795H73.8891V114.264Z" fill="#6267DF"/>
<path d="M114.117 139.117C114.117 142.692 111.227 145.584 107.653 145.584C104.08 145.584 101.189 142.692 101.189 139.117C101.189 135.542 104.08 132.651 107.653 132.651C111.227 132.651 114.117 135.542 114.117 139.117Z" fill="white"/>
<path d="M114.116 139.117C114.116 139.117 114.077 138.539 113.814 137.566C113.552 136.607 112.895 135.214 111.449 134.136C110.057 133.058 107.758 132.454 105.537 133.282C104.447 133.676 103.409 134.425 102.66 135.45C101.898 136.462 101.478 137.777 101.464 139.117C101.464 140.458 101.898 141.759 102.66 142.784C103.396 143.809 104.447 144.558 105.537 144.953C107.758 145.781 110.057 145.176 111.449 144.098C112.895 143.021 113.552 141.628 113.814 140.668C114.077 139.696 114.064 139.117 114.116 139.117C114.13 139.117 114.143 139.262 114.143 139.538C114.143 139.814 114.116 140.221 114.011 140.721C113.801 141.72 113.171 143.218 111.673 144.401C110.228 145.584 107.771 146.28 105.366 145.413C104.184 144.992 103.041 144.204 102.24 143.086C101.412 141.982 100.939 140.576 100.926 139.117C100.926 137.658 101.412 136.239 102.24 135.148C103.054 134.031 104.184 133.242 105.366 132.822C107.771 131.954 110.228 132.651 111.673 133.834C113.171 135.017 113.801 136.515 114.011 137.514C114.116 138.026 114.156 138.434 114.143 138.697C114.143 138.973 114.13 139.117 114.116 139.117Z" fill="#263238"/>
<path d="M571.659 104.693C589.027 87.3189 589.027 59.1503 571.659 41.7764C554.291 24.4025 526.133 24.4025 508.765 41.7764C491.398 59.1503 491.398 87.3189 508.765 104.693C526.133 122.067 554.291 122.067 571.659 104.693Z" fill="white"/>
<path d="M584.674 73.2322C584.674 73.2322 584.648 72.9825 584.609 72.5093C584.582 72.0099 584.53 71.3133 584.477 70.3933C584.451 69.9333 584.425 69.4076 584.385 68.8425C584.32 68.2773 584.201 67.6596 584.109 66.9893C584.004 66.319 583.886 65.5962 583.768 64.8207C583.676 64.0453 583.387 63.2567 583.19 62.3893C582.401 58.959 580.799 54.8979 578.263 50.587C575.714 46.3024 572.022 41.8207 567.004 38.0224C566.373 37.5493 565.729 37.0761 565.085 36.5898C564.415 36.143 563.706 35.7487 563.01 35.315C562.3 34.9075 561.617 34.4081 560.855 34.0664C560.093 33.6984 559.331 33.3304 558.556 32.9624C558.175 32.7784 557.781 32.5944 557.386 32.4104C556.979 32.2658 556.572 32.1081 556.165 31.9635C555.337 31.6612 554.509 31.359 553.681 31.0567C552.841 30.7807 551.947 30.5967 551.08 30.3601C550.2 30.163 549.32 29.8475 548.4 29.7555C546.574 29.4927 544.721 29.1247 542.803 29.1115C541.844 29.0852 540.885 28.9801 539.926 29.0064C538.954 29.059 537.981 29.1115 536.996 29.1641C536.51 29.2035 536.011 29.1904 535.525 29.2561L534.053 29.4795C533.068 29.6372 532.069 29.7555 531.084 29.9658C529.126 30.4915 527.116 30.899 525.185 31.7007C523.201 32.3315 521.335 33.3173 519.417 34.2373C518.484 34.7498 517.591 35.3281 516.671 35.8801C516.225 36.1693 515.739 36.419 515.305 36.7475L514.004 37.7201C512.204 38.9556 510.641 40.4933 508.986 41.9784C508.237 42.7933 507.488 43.6213 506.739 44.4493L506.174 45.067L505.662 45.7373L504.65 47.091L503.638 48.4579L502.745 49.9167L501.852 51.3756L501.405 52.1116L501.024 52.887C500.525 53.9253 500.025 54.9636 499.526 56.0019C499.132 57.0927 498.725 58.1836 498.331 59.2744C496.885 63.7167 496.11 68.4219 496.045 73.219C496.11 78.0162 496.885 82.7345 498.317 87.1636C498.725 88.2545 499.119 89.3454 499.513 90.4362C500.012 91.4745 500.511 92.5259 501.011 93.5511L501.392 94.3265L501.838 95.0625L502.732 96.5214L503.625 97.9802L504.637 99.3471L505.648 100.701L506.161 101.371L506.726 101.989C507.475 102.817 508.224 103.645 508.972 104.46C510.615 105.945 512.191 107.496 513.991 108.718L515.292 109.691C515.725 110.019 516.212 110.269 516.658 110.558C517.578 111.11 518.471 111.701 519.417 112.201C521.335 113.121 523.201 114.107 525.185 114.737C527.103 115.539 529.126 115.933 531.084 116.472C532.069 116.683 533.081 116.788 534.053 116.959L535.525 117.182C536.011 117.248 536.51 117.248 536.996 117.274C537.981 117.327 538.954 117.379 539.926 117.432C540.898 117.445 541.857 117.353 542.803 117.327C544.721 117.327 546.561 116.932 548.4 116.683C549.32 116.591 550.187 116.275 551.08 116.078C551.96 115.841 552.841 115.657 553.681 115.381C554.522 115.079 555.35 114.777 556.178 114.475C556.585 114.33 556.992 114.172 557.4 114.028C557.794 113.844 558.175 113.66 558.569 113.476C559.344 113.108 560.106 112.74 560.868 112.372C561.63 112.03 562.313 111.531 563.023 111.123C563.719 110.689 564.428 110.282 565.099 109.848C565.742 109.362 566.386 108.889 567.017 108.416C572.035 104.617 575.727 100.136 578.276 95.8511C580.812 91.5534 582.415 87.4922 583.203 84.0488C583.4 83.1945 583.689 82.4059 583.781 81.6173C583.899 80.8419 584.017 80.1191 584.123 79.4488C584.228 78.7785 584.346 78.1608 584.398 77.5956C584.438 77.0305 584.464 76.5048 584.49 76.0448C584.543 75.1248 584.596 74.4282 584.622 73.9288C584.661 73.4556 584.687 73.2059 584.687 73.2059C584.687 73.2059 584.687 73.4556 584.687 73.9288C584.674 74.4282 584.648 75.1248 584.609 76.0448C584.596 76.5179 584.569 77.0305 584.543 77.6088C584.49 78.1871 584.385 78.8048 584.293 79.4751C584.188 80.1453 584.083 80.8814 583.978 81.6568C583.899 82.4454 583.61 83.2339 583.426 84.1014C582.677 87.5579 581.088 91.6585 578.565 96.0088C576.016 100.346 572.325 104.867 567.279 108.731C566.649 109.204 566.005 109.691 565.348 110.177C564.678 110.624 563.956 111.031 563.259 111.478C562.537 111.885 561.853 112.398 561.078 112.74C560.316 113.108 559.541 113.489 558.766 113.857C558.372 114.041 557.978 114.238 557.584 114.422C557.176 114.567 556.756 114.724 556.349 114.882C555.521 115.184 554.68 115.5 553.839 115.802C552.985 116.091 552.092 116.275 551.212 116.512C550.318 116.722 549.438 117.037 548.505 117.129C546.653 117.392 544.787 117.787 542.856 117.8C541.897 117.839 540.924 117.931 539.939 117.918C538.954 117.865 537.968 117.826 536.983 117.773C536.484 117.734 535.984 117.747 535.485 117.681L533.987 117.458C532.989 117.3 531.977 117.182 530.979 116.972C529.008 116.433 526.959 116.039 525.014 115.237C523.004 114.593 521.112 113.607 519.181 112.674C518.235 112.161 517.328 111.57 516.395 111.018C515.936 110.729 515.45 110.479 515.016 110.151L513.702 109.165C511.876 107.916 510.286 106.352 508.618 104.854C507.856 104.026 507.107 103.185 506.345 102.357L505.767 101.726L505.254 101.043L504.23 99.6757L503.205 98.2957L502.298 96.8237L501.392 95.3385L500.945 94.5894L500.564 93.8008C500.065 92.7494 499.552 91.6979 499.04 90.6465C498.633 89.5425 498.225 88.4385 497.818 87.3345C496.36 82.8396 495.572 78.0688 495.506 73.2059C495.572 68.3562 496.36 63.5722 497.818 59.0773C498.225 57.9733 498.633 56.8693 499.04 55.7653C499.552 54.7139 500.052 53.6624 500.564 52.611L500.945 51.8224L501.392 51.0733L502.298 49.5881L503.205 48.1161L504.23 46.7361L505.254 45.3693L505.767 44.6858L506.345 44.055C507.107 43.2138 507.869 42.3858 508.618 41.5578C510.286 40.0596 511.876 38.4955 513.702 37.247L515.016 36.2613C515.45 35.9327 515.936 35.683 516.395 35.3938C517.328 34.8418 518.235 34.2504 519.181 33.7378C521.125 32.8047 523.017 31.819 525.014 31.1881C526.959 30.3864 529.008 29.979 530.979 29.4532C531.977 29.243 532.989 29.1378 533.987 28.967L535.485 28.7435C535.984 28.6778 536.484 28.6778 536.983 28.6515C537.981 28.599 538.967 28.5595 539.939 28.507C540.924 28.507 541.883 28.5858 542.856 28.6252C544.787 28.6384 546.653 29.0195 548.505 29.2955C549.438 29.4007 550.318 29.7161 551.212 29.9132C552.092 30.1498 552.985 30.347 553.839 30.623C554.68 30.9384 555.521 31.2407 556.349 31.543C556.769 31.7007 557.176 31.8453 557.584 32.003C557.978 32.187 558.372 32.3841 558.766 32.5681C559.541 32.9493 560.316 33.3173 561.078 33.6853C561.853 34.0401 562.537 34.5395 563.259 34.947C563.969 35.3807 564.678 35.8013 565.348 36.2481C565.992 36.7344 566.636 37.2207 567.279 37.6938C572.325 41.5447 576.029 46.079 578.565 50.4161C581.088 54.7664 582.677 58.867 583.426 62.3236C583.623 63.191 583.899 63.9796 583.978 64.7682C584.096 65.5436 584.201 66.2665 584.293 66.9499C584.385 67.6202 584.504 68.251 584.543 68.8162C584.569 69.3945 584.582 69.907 584.609 70.3802C584.648 71.3002 584.674 71.9968 584.687 72.4962C584.701 72.9693 584.687 73.219 584.687 73.219L584.674 73.2322Z" fill="#263238"/>
<path d="M524.396 65.6093H532.844C532.844 65.6093 532.844 58.5121 540.215 58.3807C544.038 58.315 546.022 60.8253 546.836 62.7442C547.769 64.9785 547.493 67.515 546.232 69.5916C544.8 71.9573 541.66 74.0996 535.971 73.1007V85.5076H544.327V80.9996C544.327 80.9996 556.046 77.9636 556.046 65.0573C556.046 52.151 544.971 49.8247 540.228 49.8247C536.602 49.8247 524.252 50.7053 524.41 65.6093H524.396Z" fill="#6267DF"/>
<path d="M544.419 88.7277H535.945V96.6528H544.419V88.7277Z" fill="#6267DF"/>
<path d="M498.829 111.557C498.829 115.303 495.794 118.352 492.037 118.352C488.279 118.352 485.244 115.316 485.244 111.557C485.244 107.798 488.279 104.762 492.037 104.762C495.794 104.762 498.829 107.798 498.829 111.557Z" fill="white"/>
<path d="M498.829 111.557C498.829 111.557 498.79 110.952 498.514 109.927C498.238 108.915 497.542 107.443 496.031 106.313C494.56 105.183 492.155 104.552 489.817 105.419C488.674 105.84 487.57 106.615 486.795 107.706C485.994 108.771 485.547 110.137 485.534 111.557C485.547 112.976 485.994 114.343 486.795 115.408C487.57 116.485 488.674 117.274 489.817 117.695C492.155 118.562 494.56 117.931 496.031 116.801C497.542 115.671 498.238 114.199 498.514 113.187C498.79 112.161 498.777 111.557 498.829 111.557C498.843 111.557 498.856 111.701 498.869 111.991C498.869 112.28 498.843 112.7 498.724 113.239C498.501 114.291 497.844 115.868 496.268 117.116C494.744 118.365 492.168 119.101 489.633 118.181C488.385 117.747 487.189 116.906 486.348 115.736C485.481 114.58 484.982 113.095 484.969 111.557C484.969 110.019 485.481 108.534 486.348 107.377C487.202 106.208 488.385 105.367 489.633 104.933C492.168 104.026 494.744 104.762 496.254 105.997C497.831 107.233 498.488 108.81 498.711 109.875C498.829 110.413 498.856 110.834 498.856 111.123C498.856 111.412 498.843 111.557 498.816 111.557H498.829Z" fill="#263238"/>
<path d="M251.687 438.236C237.511 402.698 226.869 378.016 226.869 378.016L97.209 397.73C97.209 397.73 73.902 457.504 75.9253 484.618C77.9486 511.731 87.4343 559.493 87.4343 559.493H244.343C244.343 559.493 265.889 473.775 251.7 438.236H251.687Z" fill="#263238"/>
<path d="M204.89 141.838C205.902 131.587 207.439 121.269 211.196 111.675C214.941 102.081 221.089 93.1699 229.774 87.6236L232.007 89.7002C233.544 85.2973 237.643 81.8933 242.255 81.1836C246.866 80.4739 251.793 82.4979 254.579 86.2436C259.558 84.903 265.26 86.9402 268.268 91.1196C271.277 95.299 271.382 101.358 268.531 105.656C273.195 106.247 277.307 109.914 278.424 114.474C279.541 119.035 277.597 124.2 273.747 126.881C278.884 131.324 280.934 139.012 278.674 145.413C276.427 151.827 270.029 156.545 263.237 156.795C264.747 162.696 261.673 169.451 256.234 172.172C250.795 174.905 243.542 173.328 239.719 168.597C240.192 174.735 235.292 180.544 229.314 182.003C223.336 183.461 216.82 181.043 212.471 176.706C208.109 172.369 205.718 166.349 204.785 160.264C203.852 154.179 204.286 147.976 204.89 141.851V141.838Z" fill="#263238"/>
<path d="M232.479 96.4161C238.444 98.3481 239.666 103.185 240.901 107.206C243.568 115.868 240.572 128.695 235.724 136.357C230.876 144.02 225.555 147.91 216.595 149.211C216.306 135.451 216.017 121.703 215.715 107.942L232.479 96.4161Z" fill="#6267DF"/>
<path d="M235.843 120.1C239.916 114.803 239.338 106.497 234.569 101.818C237.183 98.5322 236.237 93.4722 233.584 90.2259C230.93 86.9796 226.988 85.1133 223.178 83.3521C221.089 73.7578 210.316 67.0024 200.765 69.3024C195.785 61.9818 185.196 60.8384 176.709 63.3092C174.633 63.9138 172.557 64.6892 170.402 64.6892C168.813 64.6892 167.275 64.2555 165.699 64.0321C157.067 62.8755 148.488 68.9475 145.125 76.991C144.586 78.279 144.139 79.6327 143.285 80.7367C142.168 82.1824 140.461 83.0367 139.015 84.1538C135.888 86.5721 133.891 90.4099 133.734 94.3527C133.589 97.7042 134.667 101.266 133.248 104.315C132.538 105.84 131.264 107.075 130.712 108.665C129.109 113.278 134.22 117.984 133.274 122.768C133.077 123.74 132.643 124.647 132.367 125.607C131.816 127.565 132 129.72 132.88 131.56C133.563 132.98 134.667 134.268 134.759 135.845C134.824 137.041 134.299 138.171 134.062 139.341C133.484 142.193 139.646 153.22 142.103 154.771L215.847 155.428C221.431 154.284 225.977 149.224 226.515 143.56C226.607 142.613 226.62 141.588 227.198 140.852C227.698 140.221 228.499 139.919 229.209 139.538C233.951 136.988 234.53 130.469 234.03 125.094C233.965 124.345 233.886 123.569 234.07 122.846C234.346 121.782 235.147 120.954 235.804 120.086L235.843 120.1Z" fill="#263238"/>
<path d="M214.717 120.205C214.941 107.154 206.756 92.1448 193.788 85.7573C185.616 81.7356 179.244 81.7093 174.948 81.2099C165.318 80.0928 157.553 84.8636 157.553 84.8636C153.494 85.823 138.595 99.4654 137.82 114.264C136.966 130.719 136.559 150.828 138.634 163.077C142.812 187.694 161.744 190.638 161.744 190.638C161.744 190.598 159.984 231.564 159.984 231.564L196.363 261.386L207.478 212.415L214.73 120.205H214.717Z" fill="#FFBF9D"/>
<path d="M161.731 190.638C161.731 190.638 178.443 191.531 194.76 181.477C194.76 181.477 186.155 198.957 161.455 196.907L161.731 190.638Z" fill="#FF9A6C"/>
<path d="M211 143.625C210.987 141.785 213.062 137.435 214.876 137.133C219.71 136.331 228.434 136.62 228.657 148.922C228.946 165.732 212.445 161.986 211.972 162.078C209.292 162.63 211.052 149.973 211 143.625Z" fill="#FFBF9D"/>
<path d="M216.491 155.848C216.57 155.796 216.794 156.045 217.28 156.269C217.766 156.479 218.594 156.624 219.474 156.269C221.234 155.585 222.68 152.747 222.719 149.711C222.732 148.173 222.39 146.727 221.826 145.531C221.287 144.309 220.485 143.468 219.579 143.323C218.686 143.126 218.068 143.678 217.871 144.151C217.648 144.624 217.766 144.966 217.674 144.992C217.621 145.032 217.306 144.716 217.437 144.02C217.503 143.678 217.687 143.284 218.081 142.955C218.475 142.627 219.067 142.443 219.697 142.495C220.998 142.561 222.18 143.731 222.798 145.045C223.494 146.359 223.915 147.989 223.888 149.711C223.836 153.101 222.167 156.295 219.737 157.044C218.554 157.373 217.569 157.044 217.056 156.65C216.531 156.243 216.439 155.875 216.491 155.835V155.848Z" fill="#FF9A6C"/>
<path d="M134.207 111.78C134.746 105.669 137.176 99.8859 140.119 94.5104C142.156 90.791 144.507 87.1635 147.713 84.3772C150.393 82.0641 153.586 80.4212 156.792 78.8967C165.213 74.9012 174.607 71.5104 183.699 73.5607C188.573 74.6647 192.974 77.2538 197.244 79.8561C200.515 81.8538 203.813 83.891 206.559 86.5721C208.963 88.9247 210.908 91.711 212.602 94.6156C216.675 101.529 219.539 109.257 220.091 117.261C220.643 125.265 226.7 132.336 222.009 138.841C221.641 139.341 213.299 141.076 212.721 141.299C211.367 141.838 209.87 140.366 209.883 138.907C209.883 137.448 210.894 136.186 211.985 135.201C209.909 135.135 208.477 132.809 208.608 130.732C208.74 128.656 209.975 126.829 211.21 125.146C211.367 124.923 211.538 124.7 211.578 124.424C211.67 123.714 210.868 123.28 210.251 122.912C207.255 121.138 206.927 116.209 209.646 114.054C205.639 113.121 203.038 108.297 204.47 104.446C204.693 103.842 205.009 103.145 204.706 102.567C204.43 102.002 203.734 101.831 203.13 101.66C198.689 100.346 195.707 95.3253 196.679 90.8041C194.34 90.9224 191.976 91.0407 189.703 90.4887C187.43 89.9367 185.236 88.6093 184.198 86.5195C182.713 89.2007 179.783 91.0275 176.722 91.1984C173.661 91.3693 170.56 89.8578 168.8 87.3475C164.885 87.7287 160.878 87.0978 157.265 85.5601C156.371 89.2138 153.494 92.3024 149.934 93.459C149.237 93.6824 148.449 93.9058 148.107 94.5498C147.897 94.9573 147.923 95.4567 147.95 95.9167C148.068 98.2693 146.478 99.2681 145.178 101.226C143.89 103.185 141.63 106.116 139.37 105.458C139.62 109.454 137.479 112.372 134.115 114.527L134.233 111.767L134.207 111.78Z" fill="#263238"/>
<path d="M130.725 108.692C130.725 108.692 130.883 107.995 131.619 106.878C131.974 106.313 132.473 105.656 132.933 104.814C133.393 103.973 133.747 102.909 133.852 101.66C133.971 100.425 133.852 99.0185 133.747 97.507C133.629 95.9825 133.498 94.3002 133.839 92.5127C134.155 90.7384 134.864 88.8984 136.007 87.1899C136.572 86.3356 137.255 85.5339 138.057 84.7979C138.845 84.0487 139.765 83.431 140.697 82.8001C141.617 82.1693 142.55 81.4859 143.233 80.579C143.916 79.659 144.35 78.5418 144.796 77.3984C145.703 75.0984 147.043 72.851 148.817 70.8664C150.59 68.8818 152.745 67.0813 155.281 65.7933C156.529 65.1098 157.908 64.6498 159.314 64.2424C160.746 63.9138 162.218 63.6641 163.728 63.7035C164.477 63.7035 165.239 63.7955 165.988 63.8613C166.737 63.9664 167.486 64.1241 168.222 64.2555C169.706 64.5315 171.217 64.571 172.715 64.2161C174.213 63.9007 175.684 63.3487 177.234 62.9544C178.772 62.5207 180.374 62.2578 181.99 62.0738C183.606 61.8898 185.262 61.8898 186.917 61.9818C188.573 62.1001 190.228 62.4024 191.857 62.8492C195.076 63.8087 198.216 65.583 200.371 68.3561C200.581 68.6321 200.791 68.9081 201.001 69.1841L200.739 69.079C205.81 67.8567 211.131 69.1841 215.23 71.8784C219.368 74.5596 222.443 78.7259 223.441 83.3127L223.31 83.1419C225.346 84.0881 227.37 85.0344 229.235 86.2041C231.088 87.3607 232.796 88.7539 234.083 90.4625C235.358 92.1842 236.133 94.2082 236.317 96.2453C236.514 98.2825 236.001 100.385 234.753 101.949V101.673C237.157 104.065 238.392 107.246 238.682 110.269C238.971 113.305 238.353 116.275 237 118.641C236.698 119.245 236.277 119.784 235.896 120.31C235.489 120.823 235.082 121.309 234.753 121.821C234.425 122.334 234.215 122.899 234.175 123.477C234.123 124.056 234.188 124.647 234.241 125.225C234.438 127.539 234.398 129.694 234.109 131.613C233.82 133.519 233.282 135.201 232.493 136.489C231.731 137.79 230.759 138.684 229.905 139.236C229.038 139.814 228.276 140.051 227.856 140.353C227.422 140.642 227.264 140.879 227.251 140.865C227.251 140.865 227.383 140.616 227.816 140.3C228.237 139.959 228.999 139.709 229.84 139.117C230.68 138.552 231.6 137.659 232.336 136.384C233.085 135.109 233.597 133.453 233.873 131.573C234.136 129.681 234.162 127.552 233.939 125.252C233.886 124.673 233.807 124.082 233.86 123.451C233.899 122.82 234.136 122.203 234.477 121.651C234.819 121.099 235.239 120.612 235.633 120.1C236.001 119.574 236.395 119.061 236.698 118.457C237.998 116.144 238.59 113.252 238.287 110.295C237.998 107.351 236.776 104.249 234.438 101.962L234.307 101.831L234.425 101.686C235.594 100.228 236.067 98.243 235.87 96.2847C235.686 94.3265 234.937 92.3813 233.702 90.7384C232.467 89.0956 230.799 87.7419 228.972 86.5984C227.146 85.455 225.136 84.5219 223.1 83.5756L222.995 83.523L222.968 83.4047C221.996 78.9493 219.001 74.9013 214.954 72.2858C210.947 69.6573 205.757 68.3824 200.844 69.5521L200.686 69.5915L200.581 69.447C200.384 69.1841 200.174 68.9213 199.977 68.6584C197.914 65.9773 194.866 64.2424 191.726 63.3092C190.136 62.8624 188.52 62.5864 186.891 62.455C185.262 62.363 183.646 62.363 182.056 62.5338C180.466 62.7178 178.89 62.9675 177.379 63.4013C175.855 63.7955 174.37 64.3475 172.82 64.663C172.045 64.8207 171.257 64.9258 170.468 64.9258C169.68 64.9258 168.905 64.8207 168.143 64.6893C167.394 64.5578 166.645 64.4132 165.909 64.295C165.174 64.2292 164.438 64.1241 163.702 64.1372C162.231 64.0978 160.799 64.3475 159.406 64.6498C158.04 65.0441 156.686 65.491 155.465 66.1613C152.968 67.4098 150.853 69.171 149.106 71.1161C147.345 73.0613 146.031 75.2693 145.125 77.5167C144.665 78.647 144.231 79.8036 143.496 80.7761C142.76 81.7487 141.788 82.4453 140.868 83.0761C139.935 83.707 139.029 84.3116 138.254 85.0344C137.478 85.7441 136.808 86.5327 136.244 87.3607C135.114 89.0167 134.417 90.8173 134.089 92.5522C133.747 94.287 133.852 95.9562 133.957 97.4807C134.063 99.0053 134.168 100.412 134.023 101.673C133.918 102.935 133.524 104.026 133.038 104.88C132.552 105.721 132.039 106.365 131.671 106.917C131.304 107.456 131.054 107.903 130.909 108.205C130.765 108.508 130.712 108.678 130.699 108.665L130.725 108.692Z" fill="#455A64"/>
<path d="M192.869 65.6881C192.869 65.6881 192.423 65.4384 191.608 65.0441C190.794 64.663 189.545 64.1767 187.929 64.0058C186.327 63.8218 184.356 63.9796 182.411 64.8601C180.48 65.7276 178.614 67.3178 177.419 69.4601C177.077 70.0779 176.788 70.735 176.604 71.3659C176.434 71.9967 176.407 72.6801 176.736 73.1401L177.156 73.7053L176.473 73.5213C174.607 73.0087 172.689 73.3767 171.283 74.1784C169.851 74.9801 168.945 76.2156 168.459 77.3064C167.959 78.4236 167.841 79.4093 167.828 80.0796C167.815 80.7499 167.867 81.1179 167.828 81.131C167.815 81.131 167.789 81.039 167.749 80.8682C167.71 80.6973 167.67 80.4344 167.657 80.0796C167.631 79.3962 167.697 78.3579 168.17 77.175C168.643 76.0053 169.562 74.6779 171.073 73.7973C172.558 72.9167 174.594 72.4961 176.604 73.035L176.342 73.4161C175.869 72.759 175.934 71.9179 176.118 71.2213C176.315 70.5116 176.617 69.8544 176.985 69.1973C178.233 66.9498 180.204 65.307 182.227 64.4264C184.277 63.5327 186.34 63.4144 187.982 63.651C189.637 63.8744 190.899 64.4264 191.7 64.8733C192.107 65.0967 192.41 65.2938 192.593 65.4516C192.791 65.5961 192.882 65.6881 192.869 65.7013V65.6881Z" fill="#455A64"/>
<path d="M220.288 84.7716C220.288 84.7716 220.117 85.0213 219.71 85.3762C219.302 85.731 218.685 86.2305 217.818 86.7168C216.951 87.1899 215.821 87.6631 214.467 87.7551C213.141 87.8471 211.551 87.5579 210.29 86.5196L210.657 86.4539C210.5 86.6773 210.342 86.9139 210.171 87.1505C209.987 87.3739 209.79 87.5973 209.606 87.8208C208.384 89.1088 206.887 90.0025 205.428 90.4625C203.97 90.9488 202.577 91.0802 201.421 91.0013C200.265 90.9225 199.372 90.6465 198.767 90.4231C198.176 90.1602 197.874 89.9893 197.887 89.9631C197.927 89.8579 199.188 90.5676 201.434 90.6465C202.551 90.6859 203.878 90.5151 205.271 90.0288C206.65 89.5556 208.069 88.7013 209.238 87.4791C209.422 87.2688 209.606 87.0585 209.777 86.8482C209.935 86.6248 210.092 86.4013 210.237 86.1911L210.395 85.9545L210.605 86.1253C211.735 87.0585 213.193 87.3608 214.441 87.2951C215.702 87.2425 216.806 86.8351 217.66 86.4145C219.368 85.5339 220.235 84.6928 220.288 84.7716Z" fill="#455A64"/>
<path d="M229.3 100.306C229.3 100.306 229.3 100.412 229.261 100.622C229.208 100.819 229.103 101.108 228.893 101.437C228.486 102.094 227.579 102.909 226.2 103.264C224.82 103.632 223.099 103.369 221.391 102.777C220.537 102.475 219.644 102.173 218.724 101.752C217.831 101.332 216.872 100.714 216.386 99.6493C216.346 99.5573 216.307 99.4653 216.28 99.3733L216.675 99.4916C215.072 100.766 213.403 101.884 211.708 102.528C210.027 103.198 208.332 103.316 206.992 103.053C205.639 102.804 204.64 102.252 204.075 101.752C203.786 101.516 203.576 101.292 203.458 101.134C203.339 100.977 203.274 100.885 203.287 100.885C203.326 100.858 203.589 101.174 204.18 101.608C204.771 102.041 205.744 102.528 207.031 102.712C208.319 102.909 209.908 102.764 211.524 102.107C213.14 101.463 214.743 100.372 216.346 99.1104L216.609 98.9001L216.74 99.2287C216.767 99.2944 216.793 99.3733 216.832 99.4521C217.226 100.32 218.08 100.898 218.921 101.305C219.775 101.713 220.682 102.028 221.523 102.33C223.191 102.935 224.807 103.211 226.095 102.909C227.395 102.62 228.276 101.91 228.709 101.318C229.156 100.727 229.221 100.293 229.274 100.306H229.3Z" fill="#455A64"/>
<path d="M175.027 134.452C174.922 136.094 176.21 137.54 177.918 137.685C179.626 137.829 181.097 136.62 181.216 134.99C181.321 133.348 180.033 131.902 178.325 131.757C176.617 131.613 175.133 132.822 175.027 134.465V134.452Z" fill="#263238"/>
<path d="M144.901 133.624C144.795 135.267 146.083 136.712 147.791 136.857C149.499 137.001 150.97 135.792 151.089 134.163C151.194 132.52 149.906 131.074 148.198 130.929C146.49 130.785 145.006 131.994 144.901 133.637V133.624Z" fill="#263238"/>
<path d="M143.666 123.306C144.033 123.727 146.451 122.058 149.788 122.176C153.125 122.242 155.529 124.042 155.91 123.648C156.094 123.477 155.726 122.728 154.688 121.913C153.664 121.098 151.89 120.297 149.801 120.231C147.712 120.178 145.938 120.888 144.914 121.637C143.863 122.4 143.482 123.109 143.666 123.306Z" fill="#263238"/>
<path d="M176.933 124.976C177.353 125.357 179.574 123.451 182.911 123.214C186.248 122.938 188.81 124.476 189.151 124.042C189.309 123.845 188.875 123.149 187.746 122.439C186.642 121.742 184.803 121.112 182.714 121.269C180.638 121.427 178.943 122.321 177.984 123.175C177.012 124.029 176.723 124.792 176.92 124.962L176.933 124.976Z" fill="#263238"/>
<path d="M164.463 150.092C164.489 149.908 162.414 149.474 159.063 148.935C158.209 148.817 157.408 148.62 157.29 148.041C157.106 147.424 157.5 146.504 157.947 145.531C158.814 143.494 159.72 141.352 160.679 139.104C164.489 129.957 167.275 122.413 166.894 122.268C166.526 122.124 163.136 129.418 159.339 138.565C158.42 140.826 157.539 142.968 156.712 145.032C156.357 145.991 155.766 147.082 156.16 148.37C156.37 149.014 156.987 149.5 157.526 149.671C158.065 149.855 158.551 149.881 158.971 149.921C162.361 150.21 164.463 150.289 164.476 150.105L164.463 150.092Z" fill="#263238"/>
<path d="M169.64 155.06C170.888 155.231 172.149 155.888 172.872 156.939C173.607 157.991 174.133 160.448 173.41 161.395C172.793 162.209 170.034 162.209 168.129 161.973C167.248 161.868 166.513 161.25 166.224 160.409L165.475 158.253C165.041 157.018 165.685 155.638 166.933 155.257C167.774 154.994 168.72 154.941 169.653 155.073L169.64 155.06Z" fill="#FF9A6C"/>
<path d="M175.408 112.753C175.907 113.581 179.1 112.516 183.041 112.24C186.983 111.872 190.307 112.398 190.662 111.491C190.819 111.057 190.11 110.335 188.691 109.704C187.272 109.086 185.13 108.652 182.766 108.836C180.401 109.033 178.351 109.809 177.064 110.663C175.763 111.504 175.185 112.345 175.408 112.753Z" fill="#263238"/>
<path d="M144.493 117.813C145.19 118.549 147.844 117.694 151.049 117.576C154.255 117.353 156.988 117.931 157.592 117.116C157.855 116.722 157.408 115.973 156.199 115.289C155.004 114.606 153.033 114.067 150.839 114.185C148.632 114.304 146.74 115.04 145.65 115.854C144.533 116.669 144.191 117.458 144.493 117.826V117.813Z" fill="#263238"/>
<path d="M259.754 256.759L228.197 371.273L239.272 404.091C197.598 422.465 137.36 428.3 89.8652 405.287C89.8652 405.287 105.999 357.946 106.538 348.72C107.089 339.507 103.122 285.661 107.51 267.602C111.898 249.544 124.471 210.851 124.471 210.851L161.442 204.976C178.39 214.084 189.242 215.438 207.465 204.884L241.9 212.402L259.754 256.759Z" fill="#455A64"/>
<path d="M125.036 210.799C125.036 210.799 105.184 212.901 97.1965 229.238C89.3005 245.377 67.3861 316.783 66.1905 328.716C64.9949 340.65 74.6777 356.711 83.1124 358.919L108.692 333.408L129.91 335.301L157.855 204.897L125.062 210.799H125.036Z" fill="#455A64"/>
<g opacity="0.3">
<path d="M110.045 254.67C103.87 270.691 102.122 288.381 105.052 305.296C100.388 303.561 95.7373 301.813 91.0733 300.078C94.8834 305.335 99.889 309.725 105.591 312.814C101.82 311.723 97.9577 310.619 94.0425 310.882C90.1274 311.131 86.0808 313.024 84.3203 316.533C88.8924 315.692 93.5433 314.864 98.1548 315.403C102.766 315.942 107.417 318.071 109.9 322.001C106.458 307.123 105.131 291.759 105.972 276.513" fill="black"/>
</g>
<g opacity="0.3">
<path d="M104.253 352.873L208.425 363.203C200.91 363.046 195.142 369.407 188.639 373.166C176.604 380.132 161.614 378.186 147.871 376.018C136.494 374.23 125.103 372.43 113.725 370.642C110.848 370.196 107.787 369.643 105.672 367.659C101.875 364.084 102.913 357.92 104.253 352.873Z" fill="black"/>
</g>
<path d="M183.816 344.304L201.264 327.455C202.958 325.825 205.271 325.01 207.622 325.221C212.602 325.694 221.036 326.561 222.771 327.245C225.267 328.217 227.619 329.597 228.315 330.846C229.011 332.094 231.363 339.586 231.508 340.69C231.573 341.229 231.416 342.779 231.232 344.238C231.008 345.96 229.116 346.972 227.619 346.118C226.935 345.737 226.318 345.224 225.976 344.567C224.873 342.49 225.004 341.649 225.004 341.649C225.004 341.649 225.556 349.141 219.46 349.272C219.46 349.272 222.271 355.646 214.415 358.288C214.415 358.288 214.704 362.441 208.135 363.006C201.566 363.558 195.614 363.006 195.614 363.006C195.614 363.006 183.619 371.628 175.158 372.18C166.697 372.732 147.778 369.039 147.778 369.039L145.492 334.158L183.842 344.278L183.816 344.304Z" fill="#FFBF9D"/>
<path d="M207.451 333.619C207.451 333.619 208.489 334.131 210.25 334.789C211.997 335.446 214.441 336.313 217.2 337.049C218.566 337.444 219.946 337.654 221.102 337.969C222.271 338.285 222.967 339.152 223.48 339.914C223.992 340.69 224.386 341.347 224.741 341.741C225.083 342.149 225.332 342.32 225.345 342.293C225.372 342.267 225.175 342.057 224.885 341.623C224.583 341.202 224.242 340.532 223.756 339.73C223.506 339.323 223.217 338.889 222.81 338.482C222.402 338.074 221.851 337.746 221.233 337.549C220.011 337.194 218.697 336.97 217.318 336.576C214.572 335.84 212.128 335.025 210.355 334.447C208.581 333.869 207.477 333.527 207.451 333.593V333.619Z" fill="#FF9A6C"/>
<path d="M205.205 344.317C205.205 344.317 205.928 344.725 207.15 345.211C208.371 345.697 210.079 346.341 211.984 346.972C213.889 347.616 215.637 348.129 216.911 348.47C218.186 348.812 218.987 348.983 219 348.917C219.013 348.851 218.251 348.575 217.003 348.155C215.584 347.682 213.942 347.13 212.129 346.525C210.316 345.921 208.674 345.369 207.255 344.895C206.007 344.488 205.218 344.251 205.205 344.304V344.317Z" fill="#FF9A6C"/>
<path d="M200.883 354.253C200.87 354.398 203.918 354.713 207.544 355.699C211.183 356.672 213.982 357.933 214.034 357.802C214.06 357.749 213.39 357.355 212.26 356.856C211.117 356.343 209.515 355.738 207.675 355.239C205.836 354.74 204.141 354.464 202.906 354.319C201.671 354.188 200.896 354.188 200.896 354.24L200.883 354.253Z" fill="#FF9A6C"/>
<path d="M160.483 371.273L83.0996 358.919C83.0996 358.919 92.4014 320.095 105.96 320.095C107.944 320.095 176.683 342.438 176.683 342.438L160.47 371.286L160.483 371.273Z" fill="#455A64"/>
<path d="M174.029 354.372C174.029 354.372 174.751 353.767 175.842 352.716C177.037 351.546 178.482 350.126 180.072 348.562C181.714 346.933 183.186 345.421 184.211 344.304C185.235 343.187 185.84 342.451 185.787 342.412C185.735 342.372 185.065 343.016 183.974 344.068C182.779 345.237 181.333 346.657 179.744 348.221C178.101 349.85 176.643 351.362 175.605 352.479C174.58 353.596 173.976 354.332 174.029 354.372Z" fill="#FF9A6C"/>
<path d="M176.696 342.425C176.696 342.425 176.341 342.398 175.71 342.241C174.948 342.044 174.042 341.794 172.951 341.505C170.403 340.769 167 339.796 162.875 338.6C154.374 336.103 142.655 332.581 129.727 328.625C122.567 326.417 115.787 324.327 109.77 322.461L109.613 322.408L109.494 322.25C107.129 319.057 103.635 317.111 100.482 316.152C97.2758 315.179 94.2804 315.061 91.8498 315.271C89.4192 315.469 87.5405 316.007 86.2792 316.389C85.018 316.796 84.3611 317.085 84.3348 317.033C84.3085 316.98 84.926 316.599 86.161 316.086C87.4091 315.6 89.2879 314.969 91.7841 314.68C94.2541 314.365 97.3547 314.404 100.705 315.35C104.029 316.323 107.668 318.189 110.322 321.698L110.046 321.488C116.077 323.315 122.869 325.378 130.029 327.547C142.957 331.503 154.637 335.144 163.072 337.838C167.158 339.165 170.521 340.256 173.057 341.071C174.121 341.439 175.014 341.754 175.75 342.004C176.367 342.228 176.683 342.372 176.67 342.398L176.696 342.425Z" fill="#263238"/>
<path d="M156.186 218.316C156.83 216.161 160.47 196.276 161.941 191.649C164.03 185.117 180.978 173.46 180.978 173.46C180.978 173.46 178.324 167.335 171.098 170.516C162.558 174.288 158.328 180.636 156.173 179.334C154.019 178.046 140.605 164.378 136.939 164.812C133.287 165.245 132.472 169.004 133.773 170.502C135.06 172.014 136.519 174.498 136.519 174.498C136.519 174.498 128.767 172.172 130.278 180.649C130.278 180.649 121.449 175.142 122.316 186.773C122.316 186.773 116.509 184.408 115.209 188.495C113.921 192.583 117.744 197.327 119.689 200.547C121.62 203.78 127.913 222.509 127.913 222.509L127.992 239.029L158.854 232.681L156.2 218.316H156.186Z" fill="#FFBF9D"/>
<path d="M156.187 218.316C156.187 218.316 156.292 218.645 156.437 219.263C156.581 219.959 156.778 220.866 157.015 222.036C157.514 224.533 158.21 228.095 159.104 232.642L159.156 232.892L158.907 232.944C151.287 234.548 140.75 236.782 128.085 239.45L127.572 239.555V239.03C127.533 233.943 127.493 228.384 127.441 222.509L127.467 222.654C125.26 216.305 122.974 209.471 120.097 202.558C118.691 199.233 115.761 196.341 114.71 192.307C114.447 191.308 114.329 190.23 114.5 189.152C114.657 188.114 115.157 186.931 116.168 186.274C117.154 185.617 118.336 185.472 119.4 185.551C120.478 185.63 121.502 185.867 122.527 186.248L121.778 186.8C121.739 185.669 121.686 184.513 121.857 183.317C122.067 182.16 122.33 180.859 123.329 179.887C124.301 178.861 125.825 178.638 127.06 178.861C128.334 179.072 129.477 179.519 130.581 180.176L129.74 180.741C129.53 179.177 129.267 177.284 130.318 175.563C130.975 174.485 132.197 173.867 133.327 173.709C134.483 173.539 135.587 173.657 136.69 173.946L136.046 174.761C135.271 173.473 134.444 172.172 133.524 171.028C132.933 170.437 132.617 169.399 132.657 168.557C132.696 167.69 132.998 166.849 133.498 166.139C133.997 165.429 134.706 164.891 135.495 164.588C135.889 164.444 136.296 164.325 136.703 164.273C137.097 164.22 137.649 164.273 138.043 164.391C139.633 164.904 140.842 165.797 142.064 166.652C146.872 170.174 150.998 174.209 155.162 177.849C155.662 178.257 156.266 178.835 156.634 178.927C157.002 179.045 157.632 178.756 158.158 178.441C159.261 177.757 160.312 176.877 161.364 176.062C163.466 174.393 165.647 172.829 167.933 171.541C170.205 170.345 172.597 169.017 175.29 169.123C177.996 169.175 180.322 170.976 181.399 173.249L181.557 173.578L181.242 173.801C174.633 178.493 168.695 183.12 164.504 188.101C163.452 189.349 162.638 190.677 162.178 192.083C161.745 193.529 161.416 194.975 161.088 196.355C160.483 199.115 159.918 201.664 159.419 203.951C158.447 208.485 157.685 212.06 157.146 214.584C156.87 215.806 156.66 216.739 156.489 217.357C156.332 217.975 156.187 218.29 156.187 218.29C156.161 218.29 156.24 217.961 156.358 217.331C156.489 216.634 156.66 215.701 156.883 214.531C157.37 211.995 158.04 208.407 158.907 203.846C159.38 201.533 159.905 198.983 160.47 196.21C160.772 194.817 161.088 193.371 161.521 191.886C161.994 190.361 162.874 188.929 163.925 187.654C168.182 182.515 174.094 177.849 180.729 173.065L180.571 173.617C179.626 171.672 177.576 170.095 175.264 170.069C172.938 169.964 170.652 171.199 168.432 172.395C166.212 173.657 164.109 175.181 162.02 176.864C160.956 177.692 159.931 178.572 158.71 179.335C158.092 179.663 157.396 180.149 156.384 179.939C155.438 179.584 155.084 179.085 154.492 178.638C150.288 174.971 146.163 170.963 141.446 167.532C140.277 166.704 139.029 165.85 137.754 165.443C137.439 165.377 137.216 165.324 136.887 165.364C136.559 165.403 136.23 165.508 135.928 165.613C135.324 165.85 134.785 166.257 134.417 166.796C133.668 167.835 133.484 169.412 134.391 170.332C135.389 171.567 136.217 172.855 137.019 174.209L137.715 175.379L136.375 175.024C134.575 174.537 132.21 174.59 131.264 176.167C130.476 177.376 130.633 179.098 130.844 180.544L131.014 181.7L130.003 181.109C129.057 180.557 127.953 180.123 126.902 179.952C125.838 179.768 124.774 179.952 124.117 180.662C122.751 182.134 122.79 184.631 122.882 186.708L122.921 187.549L122.133 187.26C120.399 186.629 118.218 186.248 116.812 187.168C116.116 187.615 115.748 188.429 115.59 189.323C115.446 190.204 115.538 191.137 115.774 192.031C116.247 193.831 117.193 195.513 118.192 197.13C119.177 198.733 120.359 200.324 121.082 202.137C123.972 209.143 126.219 215.951 128.4 222.338L128.426 222.417V222.496C128.426 228.358 128.439 233.93 128.453 239.016L127.94 238.596C140.632 236.059 151.195 233.943 158.828 232.419L158.631 232.721C157.843 228.134 157.212 224.546 156.778 222.023C156.594 220.853 156.437 219.933 156.332 219.25C156.24 218.619 156.2 218.303 156.227 218.303L156.187 218.316Z" fill="#FF9A6C"/>
<path d="M136.559 174.708C136.48 174.813 138.215 176.299 140.304 178.204C142.393 180.097 144.035 181.7 144.14 181.608C144.232 181.529 142.721 179.768 140.619 177.863C138.517 175.944 136.638 174.616 136.559 174.708Z" fill="#FF9A6C"/>
<path d="M129.661 180.189C129.556 180.241 130.213 181.911 131.566 183.632C132.906 185.367 134.365 186.432 134.43 186.327C134.522 186.221 133.235 185.039 131.934 183.343C130.62 181.661 129.793 180.123 129.661 180.176V180.189Z" fill="#FF9A6C"/>
<path d="M122.448 186.353C122.343 186.432 123.065 187.615 124.064 188.995C125.062 190.388 125.956 191.439 126.061 191.373C126.166 191.295 125.443 190.112 124.445 188.732C123.446 187.339 122.553 186.287 122.448 186.353Z" fill="#FF9A6C"/>
<path d="M241.899 212.415L208.712 245.535L174.671 288.329L161.126 231.302L126.533 238.412C126.533 238.412 128.977 302.825 139.619 332.015C141.642 337.575 147.633 341.702 150.313 342.977C167.038 350.928 183.369 338.626 183.369 338.626C183.369 338.626 253.145 291.772 260.713 260.413C264.286 245.601 262.854 227.99 256.771 220.748C251.424 214.374 241.912 212.402 241.912 212.402L241.899 212.415Z" fill="#455A64"/>
<path d="M260.714 260.426C260.714 260.426 260.635 260.768 260.451 261.438C260.228 262.095 260.057 263.121 259.519 264.369C258.638 266.932 256.838 270.533 254.04 274.844C251.228 279.155 247.353 284.136 242.426 289.538C237.486 294.913 231.561 300.762 224.676 306.86C217.818 312.972 210.027 319.359 201.435 325.917C197.139 329.19 192.645 332.515 187.942 335.84C186.76 336.668 185.577 337.496 184.368 338.324C183.186 339.139 181.938 340.006 180.65 340.729C178.062 342.201 175.29 343.437 172.36 344.344C166.553 346.223 159.984 346.604 153.822 344.698C153.034 344.514 152.325 344.133 151.563 343.857C150.814 343.555 150.052 343.279 149.342 342.858C147.91 342.07 146.583 341.11 145.309 340.072C142.813 337.969 140.54 335.393 139.318 332.213C137.111 325.944 135.521 319.385 134.128 312.696C132.854 305.979 131.685 299.145 130.791 292.193C128.347 273.635 126.968 255.55 126.18 238.438V238.162L126.442 238.11C138.516 235.639 150.091 233.26 161.048 231.012L161.337 230.947L161.403 231.236C166.514 252.895 171.073 272.176 174.87 288.276L174.475 288.171C186.155 275.593 195.536 265.499 202.013 258.534C205.245 255.077 207.754 252.396 209.462 250.569C210.303 249.675 210.947 248.992 211.407 248.519C211.84 248.059 212.077 247.835 212.077 247.835C212.077 247.835 211.867 248.085 211.446 248.558C211.013 249.045 210.382 249.741 209.554 250.648C207.859 252.501 205.389 255.209 202.197 258.691C195.759 265.697 186.431 275.83 174.817 288.473L174.515 288.802L174.41 288.368C170.573 272.281 165.962 253.014 160.799 231.367L161.153 231.591C150.196 233.851 138.635 236.23 126.561 238.727L126.823 238.386C127.625 255.485 129.018 273.556 131.448 292.074C132.328 299.027 133.498 305.835 134.772 312.538C136.165 319.201 137.741 325.746 139.922 331.95C141.078 334.973 143.272 337.483 145.703 339.533C146.938 340.545 148.239 341.492 149.618 342.254C150.288 342.648 151.05 342.911 151.773 343.213C152.508 343.476 153.218 343.857 153.98 344.041C159.997 345.908 166.422 345.553 172.137 343.713C175.014 342.819 177.747 341.61 180.309 340.164C181.596 339.441 182.766 338.626 183.987 337.785C185.183 336.957 186.379 336.129 187.548 335.314C192.251 332.002 196.745 328.704 201.041 325.431C209.633 318.899 217.437 312.551 224.295 306.466C231.193 300.407 237.131 294.598 242.084 289.249C247.024 283.886 250.913 278.945 253.751 274.673C256.562 270.389 258.402 266.827 259.322 264.29C259.886 263.055 260.07 262.043 260.32 261.386C260.53 260.729 260.648 260.387 260.648 260.387L260.714 260.426Z" fill="#263238"/>
<path d="M180.966 314.522C180.848 314.496 181.255 312.853 181.465 310.146C181.597 308.792 181.57 307.175 181.478 305.401C181.334 303.614 181.032 301.669 180.519 299.671C179.494 295.662 177.773 292.298 176.394 289.971C174.988 287.658 173.937 286.318 174.029 286.252C174.068 286.226 174.357 286.528 174.857 287.119C175.369 287.698 176.026 288.591 176.801 289.722C178.312 292.009 180.138 295.413 181.189 299.5C181.715 301.537 181.991 303.535 182.109 305.362C182.175 307.189 182.135 308.831 181.951 310.198C181.781 311.565 181.57 312.656 181.36 313.392C181.163 314.128 181.019 314.535 180.979 314.522H180.966Z" fill="#263238"/>
<path d="M176.235 159.397C176.169 159.581 175.46 159.502 174.369 159.279C173.279 159.068 171.807 158.727 170.191 158.608C168.562 158.477 167.104 158.595 166.105 158.858C165.081 159.095 164.647 159.515 164.476 159.449C164.397 159.41 164.397 159.187 164.608 158.884C164.805 158.582 165.212 158.24 165.751 157.964C166.841 157.399 168.523 157.11 170.296 157.255C172.083 157.399 173.62 157.912 174.658 158.372C175.696 158.832 176.287 159.239 176.235 159.41V159.397Z" fill="#263238"/>
<g opacity="0.3">
<path d="M228.959 370.55C228.959 370.55 213.772 368.684 205.6 367.422C201.133 366.726 194.327 366.016 193.04 364.768C191.437 363.217 191.45 360.628 191.279 358.406C188.376 320.489 201.409 279.483 241.69 255.024L251.964 257.732L251.294 282.427L228.959 370.55Z" fill="black"/>
</g>
<path d="M466.392 75.0722C471.543 75.5322 476.732 71.6287 477.704 66.5424C478.677 61.4561 475.313 55.9098 470.36 54.4247C473.474 51.0733 474.144 45.6715 471.95 41.663C469.743 37.6412 464.842 35.3149 460.336 36.1429C460.034 31.6349 457.235 27.3635 453.215 25.3001C449.195 23.2366 444.097 23.4601 440.261 25.8521C435.163 21.6858 427.109 21.7252 422.051 25.9309C417.65 25.2212 412.92 27.6789 410.95 31.6875C408.992 35.6961 409.951 40.9401 413.209 43.9892" fill="#263238"/>
<path d="M420.028 36.4058L422.353 36.3532C445.699 35.8143 465.538 53.2812 467.969 76.5179C470.215 98.1248 472.422 122.032 472.554 133.65C472.817 157.701 448.866 161.999 448.866 161.999L451.572 190.848L393.186 190.401L385.579 85.7442C382.847 60.8252 395.065 38.4692 420.041 36.4189L420.028 36.4058Z" fill="#FFBF9D"/>
<path d="M448.878 161.986C448.878 161.986 432.114 163.235 415.73 153.469C415.73 153.469 425.492 171.002 449.43 168.281L448.878 161.999V161.986Z" fill="#FF9A6C"/>
<path d="M460.612 102.606C460.717 104.42 459.272 105.997 457.38 106.155C455.488 106.3 453.872 104.959 453.767 103.145C453.662 101.332 455.107 99.7413 456.986 99.5968C458.878 99.4522 460.494 100.806 460.599 102.606H460.612Z" fill="#263238"/>
<path d="M463.055 88.399C462.635 88.859 459.994 86.9927 456.302 87.0847C452.61 87.1242 449.943 89.0956 449.536 88.6487C449.339 88.4516 449.746 87.6367 450.902 86.743C452.045 85.8624 454.003 84.9819 456.315 84.9424C458.614 84.903 460.572 85.7047 461.702 86.5459C462.858 87.387 463.265 88.1887 463.055 88.399Z" fill="#263238"/>
<path d="M428.803 102.606C428.909 104.42 427.463 105.997 425.571 106.142C423.68 106.286 422.064 104.946 421.959 103.132C421.853 101.318 423.299 99.7282 425.19 99.5836C427.082 99.439 428.698 100.793 428.803 102.593V102.606Z" fill="#263238"/>
<path d="M426.768 89.9367C426.347 90.3967 423.707 88.5304 420.015 88.6224C416.323 88.6619 413.656 90.6333 413.249 90.1864C413.052 89.9893 413.459 89.1744 414.628 88.2807C415.771 87.4002 417.729 86.5196 420.028 86.4802C422.327 86.4407 424.285 87.2424 425.415 88.0836C426.571 88.9247 426.978 89.7264 426.768 89.9367Z" fill="#263238"/>
<path d="M440.812 117.024C440.786 116.814 443.072 116.367 446.79 115.802C447.736 115.684 448.616 115.473 448.761 114.829C448.971 114.146 448.551 113.134 448.065 112.043C447.119 109.782 446.147 107.404 445.109 104.92C440.996 94.7733 438.001 86.4276 438.408 86.2698C438.815 86.1121 442.481 94.195 446.593 104.341C447.579 106.838 448.538 109.23 449.431 111.504C449.812 112.569 450.456 113.765 450.009 115.197C449.773 115.907 449.089 116.433 448.485 116.617C447.881 116.814 447.355 116.84 446.882 116.88C443.138 117.169 440.826 117.234 440.799 117.037L440.812 117.024Z" fill="#263238"/>
<path d="M427.543 82.3006C427.084 83.2469 423.891 82.3006 419.989 82.2744C416.087 82.1561 412.829 82.9578 412.448 81.9984C412.277 81.5384 412.96 80.6841 414.34 79.8955C415.719 79.1069 417.821 78.4892 420.16 78.5286C422.498 78.5812 424.548 79.2909 425.849 80.1321C427.162 80.9732 427.754 81.8538 427.557 82.3006H427.543Z" fill="#263238"/>
<path d="M462.885 73.1533C462.122 74.0076 459.061 73.2059 455.396 73.2584C451.73 73.1927 448.643 73.9813 447.907 73.1139C447.579 72.6933 448.052 71.839 449.392 71.011C450.705 70.183 452.926 69.4864 455.448 69.4996C457.971 69.4996 460.165 70.2224 461.466 71.0504C462.779 71.8784 463.226 72.7327 462.898 73.1533H462.885Z" fill="#263238"/>
<path d="M465.38 65.5435C465.38 65.5435 458.693 50.6263 451.349 47.2881C442.467 43.24 438.907 52.9789 430.472 50.8235C422.037 48.6812 413.563 44.7909 405.155 51.4675C395.958 58.7749 400.451 63.6509 400.123 74.323C398.783 117.642 391.176 130.049 388.456 109.73C388.154 107.509 381.927 105.866 380.784 96.4556C379.312 84.259 378.498 69.4075 381.02 60.6675C383.149 53.2944 387.195 48.1423 394.552 42.3989C406.153 33.3303 422.353 32.7652 433.389 33.6063C444.425 34.4606 465.945 46.6309 465.38 65.5172V65.5435Z" fill="#263238"/>
<path d="M389.967 109.046C389.731 105.34 386.46 102.488 382.781 102.922C378.314 103.448 373.374 106.116 373.886 115.381C374.793 131.81 391.097 127.512 391.097 127.039C391.097 126.724 390.414 115.933 389.967 109.06V109.046Z" fill="#FFBF9D"/>
<path d="M387.182 121.046C387.103 120.993 386.906 121.256 386.433 121.506C385.973 121.742 385.172 121.94 384.291 121.664C382.518 121.125 380.902 118.444 380.665 115.486C380.547 113.988 380.77 112.556 381.243 111.346C381.677 110.111 382.413 109.23 383.267 109.033C384.121 108.784 384.777 109.27 385.001 109.73C385.25 110.177 385.158 110.505 385.25 110.532C385.303 110.571 385.592 110.242 385.421 109.559C385.329 109.23 385.119 108.862 384.712 108.56C384.304 108.258 383.713 108.126 383.109 108.232C381.848 108.389 380.77 109.612 380.258 110.939C379.68 112.28 379.378 113.896 379.522 115.578C379.811 118.877 381.677 121.887 384.081 122.439C385.25 122.676 386.196 122.281 386.669 121.861C387.155 121.427 387.221 121.059 387.169 121.033L387.182 121.046Z" fill="#FF9A6C"/>
<path d="M389.547 77.1881C391.715 78.5944 394.001 80.0401 396.589 80.2373C399.164 80.4344 402.068 78.8835 402.449 76.3207C402.62 75.1772 402.304 73.8498 403.04 72.943C403.907 71.8652 405.576 72.1544 406.955 72.2727C411.751 72.667 417.203 67.2521 418.32 62.5732C419.581 64.3738 422.261 64.8601 424.074 63.6247C425.887 62.3892 426.544 61.6927 427.95 60.0104C429.356 58.3281 431.34 56.8035 433.521 57.0532C434.742 57.1978 435.899 57.8944 437.107 57.7629C439.262 57.5264 440.26 54.9635 440.536 52.8212C440.812 50.6658 441.009 48.1686 442.809 46.9595C444.478 45.8423 446.685 46.4075 448.682 46.6572C450.679 46.9069 453.228 46.3812 453.688 44.4229C453.937 43.3978 453.464 42.3332 452.886 41.4526C450.232 37.4835 444.609 35.8275 440.221 37.72C438.487 32.3315 433.31 28.2177 427.661 27.7577C422.012 27.2977 416.244 30.5046 413.643 35.5515C410.095 32.476 405.024 31.28 400.465 32.4235C395.919 33.58 392.017 37.0497 390.362 41.4395C386.342 40.48 381.822 42.136 379.365 45.4612C376.908 48.7863 376.659 53.5966 378.761 57.1584C375.844 58.9195 373.387 61.9161 373.4 65.3201C373.414 68.7241 376.816 72.0361 380.075 71.0635C378.813 73.7447 379.97 77.3195 382.571 78.739C385.172 80.1584 388.798 79.2121 390.375 76.6887" fill="#263238"/>
<path d="M441.575 42.5435C441.575 42.5435 441.588 42.6486 441.575 42.8458C441.562 43.0429 441.548 43.3452 441.496 43.7264C441.364 44.4887 441.089 45.6189 440.379 46.9201C439.67 48.2081 438.553 49.6932 436.832 50.8892C435.137 52.0984 432.812 53.0447 430.144 52.9658L430.42 52.5978C430.959 53.991 430.867 55.6864 430.197 57.1453C429.566 58.6304 428.555 59.9578 427.477 61.259C426.926 61.8767 426.453 62.6127 425.678 63.191C424.929 63.743 424.022 64.0847 423.089 64.2161C421.237 64.4921 419.135 63.9664 417.755 62.4418L418.36 62.2578C418.018 65.5304 416.231 68.8556 413.328 70.9059C411.791 72.0756 409.872 72.8116 407.967 72.7984C406.062 72.8247 404.289 72.3121 402.62 71.7601L403.054 71.5499C402.213 73.6133 400.899 75.3876 399.283 76.715C397.693 78.0424 395.552 78.8442 393.594 78.4104C389.692 77.6744 387.051 74.507 386.46 71.4841L386.841 71.655C384.936 72.7459 382.873 72.9036 381.218 72.6144C379.536 72.3516 378.196 71.6419 377.237 70.9453C376.278 70.2356 375.7 69.4864 375.358 68.9738C375.043 68.435 374.899 68.1458 374.925 68.1327C375.004 68.067 375.503 69.3681 377.408 70.7087C378.354 71.3527 379.668 71.9836 381.284 72.207C382.887 72.4436 384.844 72.2596 386.592 71.2081L386.894 71.0241L386.973 71.3659C387.564 74.1916 390.113 77.1487 393.726 77.7796C395.499 78.1476 397.378 77.4379 398.889 76.1893C400.4 74.9407 401.661 73.2321 402.436 71.287L402.554 70.9847L402.87 71.0899C404.512 71.6287 406.22 72.115 407.98 72.0887C409.741 72.0887 411.462 71.4316 412.92 70.3276C415.666 68.3824 417.335 65.2807 417.676 62.1658L417.755 61.3904L418.281 61.9818C419.45 63.2961 421.329 63.7955 422.997 63.5458C423.825 63.4275 424.64 63.1384 425.283 62.6521C425.914 62.1921 426.413 61.4693 426.978 60.8384C428.055 59.5635 429.041 58.2887 429.632 56.9087C430.263 55.5418 430.355 54.0567 429.895 52.795L429.75 52.4007H430.158C432.667 52.5321 434.914 51.6647 436.569 50.5344C438.251 49.4041 439.367 47.9978 440.103 46.7755C441.548 44.2521 441.456 42.5172 441.575 42.5435Z" fill="#455A64"/>
<path d="M323.356 188.259C323.356 188.259 261.581 210.023 243.713 219.013C229.747 226.031 220.905 251.515 242.386 262.135C258.401 270.06 345.126 254.919 345.126 254.919L323.356 188.245V188.259Z" fill="#FFBF9D"/>
<path d="M511.955 404.643L354.994 398.703L349.305 452.155L343.012 559.374L423.141 559.716C423.181 559.256 433.139 499.443 433.139 499.443L437.672 498.26L437.252 559.716H512.349C516.291 508.866 518.55 466.139 518.682 462.13C519.772 430.364 511.968 404.656 511.968 404.656L511.955 404.643Z" fill="#263238"/>
<path d="M427.477 466.126C427.451 466.204 428.292 466.638 429.855 467.335C431.432 468.005 433.757 469.017 436.871 469.464C438.421 469.674 440.182 469.687 442.008 469.28C443.821 468.872 445.752 468.018 447.276 466.467C448.8 464.916 449.733 462.8 450.298 460.632C450.863 458.437 451.139 456.163 451.507 453.85C452.899 444.584 453.74 436.134 454.187 430.009C454.41 426.947 454.542 424.463 454.594 422.754C454.647 421.032 454.634 420.086 454.555 420.086C454.476 420.086 454.332 421.019 454.134 422.728C453.924 424.686 453.661 427.091 453.359 429.943C452.702 436.042 451.73 444.44 450.337 453.679C449.628 458.253 449.208 462.892 446.501 465.718C443.782 468.491 439.866 468.938 436.976 468.636C433.994 468.32 431.655 467.44 430.026 466.914C428.41 466.349 427.503 466.047 427.477 466.126Z" fill="#455A64"/>
<path d="M442.454 422.202C442.454 422.202 442.086 421.926 441.298 421.913C440.523 421.887 439.353 422.176 438.223 423.043C437.146 423.911 436.016 425.435 436.056 427.459C436.056 429.509 437.724 431.441 439.839 432.099C441.928 432.821 444.425 432.243 445.633 430.587C446.855 428.984 446.855 427.091 446.487 425.751C446.093 424.371 445.318 423.451 444.674 423.017C444.031 422.557 443.584 422.517 443.571 422.57C443.426 422.728 445.187 423.437 445.673 425.948C445.896 427.131 445.765 428.721 444.779 429.917C443.833 431.126 441.928 431.56 440.207 430.982C438.473 430.416 437.199 428.957 437.146 427.407C437.054 425.869 437.895 424.502 438.775 423.687C440.654 421.952 442.493 422.425 442.48 422.202H442.454Z" fill="#455A64"/>
<path d="M354.98 448.935C354.98 449.014 355.651 449.092 356.899 449.145C358.134 449.224 359.934 449.184 362.141 448.987C366.555 448.606 372.625 447.266 378.774 444.374C384.922 441.456 389.81 437.605 392.91 434.451C394.461 432.874 395.643 431.52 396.366 430.508C397.101 429.509 397.482 428.944 397.417 428.892C397.259 428.76 395.551 430.889 392.332 433.847C389.14 436.804 384.279 440.457 378.274 443.309C372.257 446.135 366.358 447.568 362.036 448.159C357.713 448.764 354.994 448.724 354.98 448.935Z" fill="#455A64"/>
<path d="M515.12 395.916C512.046 388.898 512.611 388.254 512.611 388.254L503.887 311.854L495.505 237.531L488.713 182.528L449.443 174.117C449.443 174.117 444.923 186.642 425.939 187.023C404.077 187.457 391.543 167.9 391.543 167.9L328.756 181.385L352.365 343.384L355.19 387.019C355.19 387.019 350.499 394.076 350.499 401.66C350.499 409.243 350.197 414.277 350.197 414.277C408.478 430.298 466.312 444.164 519.521 428.655C519.521 428.655 518.195 402.908 515.12 395.903V395.916Z" fill="#455A64"/>
<path d="M474.379 179.676C474.379 179.676 497.016 182.2 505.043 190.73C513.071 199.259 538.743 241.448 538.743 241.448L501.457 292.469L484.18 268.89L474.379 179.676Z" fill="#455A64"/>
<path d="M491.63 206.08C491.945 206.054 495.505 234.088 499.591 268.706C503.677 303.338 506.739 331.424 506.423 331.45C506.108 331.477 502.548 303.443 498.462 268.811C494.376 234.193 491.314 206.107 491.63 206.067V206.08Z" fill="#263238"/>
<path d="M328.743 181.398L278.477 203.715L296.66 254.63L345.126 262.306L328.743 181.398Z" fill="#455A64"/>
<path d="M335.668 215.149C335.996 215.11 338.4 234.968 341.028 259.506C343.656 284.044 345.508 303.955 345.166 303.995C344.838 304.034 342.434 284.175 339.806 259.638C337.178 235.113 335.326 215.188 335.668 215.149Z" fill="#263238"/>
<g opacity="0.3">
<path d="M348.068 473.262C375.369 463.444 390.491 444.098 402.697 423.582C414.902 403.066 416.649 374.178 408.832 351.612C408.832 351.612 352.43 406.194 352.023 407.403C351.616 408.612 348.068 473.262 348.068 473.262Z" fill="black"/>
</g>
<g opacity="0.3">
<path d="M424.836 186.327C424.166 191.873 427.253 197.209 431.05 201.31C434.847 205.397 439.446 208.735 442.901 213.125C446.856 218.119 449.115 224.218 451.309 230.198C455.908 242.683 460.493 255.182 465.091 267.668C469.046 278.419 473.053 289.288 479.333 298.882C485.6 308.477 494.442 316.822 505.347 320.332L497.069 249.965L453.385 179.676L424.849 186.34L424.836 186.327Z" fill="black"/>
</g>
<path d="M470.109 186.944C470.109 186.064 470.805 153.47 468.625 149.921C466.444 146.386 464.696 143.06 464.25 139.748C464.25 139.748 465.445 137.816 463.264 136.594C461.096 135.385 457.654 138.342 457.575 143.573C457.497 148.804 458.101 157.754 458.101 157.754C458.101 157.754 434.058 144.112 427.476 143.731C420.881 143.35 411.001 142.14 410.475 145.321C409.95 148.502 410.396 149.264 413.839 150.473C417.281 151.682 422.746 152.523 428.146 154.337C433.533 156.151 436.003 157.399 436.003 157.399C436.003 157.399 423.718 153.785 421.025 157.399C418.332 161.014 418.7 164.273 420.421 166.021C420.421 166.021 416.755 167.532 417.123 171.554C417.491 175.576 419.291 176.562 419.291 176.562C419.291 176.562 415.691 179.295 417.425 182.778C419.146 186.261 423.193 184.066 427.016 188.009C430.839 191.952 440.338 201.205 444.017 203.255C447.682 205.305 456.078 206.133 456.078 206.133L470.096 186.944H470.109Z" fill="#FFBF9D"/>
<path d="M470.109 186.944C470.109 186.944 470.044 187.063 469.899 187.273C469.728 187.51 469.505 187.825 469.216 188.246C468.585 189.113 467.692 190.375 466.523 192.004C464.131 195.316 460.65 200.127 456.235 206.225L456.17 206.304H456.065C454.409 206.12 452.675 205.87 450.875 205.542C449.075 205.2 447.21 204.779 445.344 204.083C444.398 203.741 443.491 203.228 442.664 202.624C441.81 202.032 441.008 201.375 440.181 200.705C438.552 199.351 436.909 197.892 435.254 196.355C433.598 194.83 431.917 193.227 430.209 191.558C429.368 190.716 428.501 189.862 427.634 189.008C426.78 188.114 425.939 187.26 424.862 186.668C423.811 186.051 422.602 185.762 421.354 185.486C420.145 185.21 418.674 184.92 417.767 183.777C416.874 182.712 416.493 181.201 416.834 179.808C417.189 178.415 418.056 177.258 419.147 176.338L419.186 176.811C418.24 176.154 417.767 175.195 417.399 174.209C417.058 173.21 416.874 172.172 416.834 171.081C416.795 169.977 417.123 168.86 417.754 167.914C418.398 166.98 419.265 166.244 420.316 165.745L420.224 166.231C418.687 164.694 418.45 162.236 419.16 160.278C419.488 159.279 420 158.332 420.618 157.478C420.894 157.044 421.341 156.584 421.827 156.335C422.313 156.059 422.838 155.888 423.364 155.756C425.492 155.31 427.634 155.494 429.762 155.756C431.89 156.059 433.993 156.506 436.095 157.097L435.871 157.675C432.718 156.23 429.302 154.994 425.821 153.943C422.326 152.904 418.674 152.221 415.034 151.183C413.734 150.775 412.433 150.394 411.224 149.619C410.62 149.224 410.121 148.528 410.029 147.779C409.924 147.043 410.002 146.359 410.094 145.689C410.147 145.387 410.173 144.966 410.397 144.611C410.607 144.269 410.909 144.02 411.224 143.823C411.855 143.455 412.525 143.284 413.195 143.152C414.535 142.903 415.862 142.863 417.176 142.85C419.817 142.85 422.405 143.06 424.967 143.231C426.254 143.336 427.502 143.349 428.816 143.599C429.447 143.744 430.064 143.928 430.682 144.099L432.482 144.729C437.211 146.53 441.639 148.712 445.909 150.867C450.179 153.049 454.278 155.257 458.219 157.478L457.799 157.741C457.51 152.576 457.195 147.634 457.326 142.85C457.51 140.471 458.416 138.013 460.4 136.633C460.899 136.305 461.478 136.081 462.095 136.055C462.713 136.016 463.33 136.279 463.79 136.633C464.263 136.988 464.657 137.514 464.749 138.119C464.854 138.723 464.71 139.315 464.42 139.84L464.46 139.683C464.972 143.323 466.799 146.464 468.493 149.316C468.704 149.658 468.953 150.052 469.071 150.473C469.216 150.88 469.282 151.288 469.374 151.695C469.518 152.51 469.623 153.312 469.702 154.1C469.873 155.678 469.965 157.215 470.044 158.687C470.333 164.615 470.32 169.727 470.32 173.907C470.306 178.086 470.254 181.346 470.201 183.554C470.175 184.644 470.149 185.472 470.136 186.064C470.109 186.629 470.083 186.918 470.083 186.918C470.083 186.918 470.057 186.629 470.057 186.064C470.057 185.472 470.057 184.631 470.057 183.554C470.057 181.319 470.057 178.073 470.057 173.92C470.017 169.74 469.978 164.628 469.663 158.727C469.571 157.255 469.466 155.73 469.295 154.166C469.216 153.378 469.098 152.589 468.953 151.8C468.782 150.986 468.625 150.263 468.125 149.566C466.404 146.701 464.552 143.547 463.987 139.775V139.696L464.026 139.617C464.25 139.209 464.368 138.697 464.289 138.224C464.21 137.751 463.908 137.343 463.501 137.041C462.699 136.371 461.57 136.476 460.689 137.067C458.902 138.303 458.022 140.629 457.865 142.903C457.746 147.595 458.062 152.576 458.377 157.715L458.403 158.227L457.957 157.978C454.028 155.77 449.929 153.575 445.659 151.406C441.389 149.251 436.962 147.082 432.285 145.308L430.511 144.69C429.907 144.532 429.302 144.348 428.698 144.204C427.515 143.967 426.202 143.941 424.927 143.849C422.365 143.678 419.777 143.481 417.176 143.481C415.875 143.481 414.574 143.533 413.313 143.77C412.104 144.02 410.686 144.453 410.725 145.781C410.633 146.425 410.567 147.082 410.659 147.674C410.751 148.278 411.08 148.751 411.592 149.093C412.643 149.776 413.97 150.171 415.231 150.565C418.818 151.577 422.484 152.274 426.018 153.325C429.539 154.403 432.928 155.612 436.16 157.11L435.937 157.688C433.874 157.11 431.785 156.663 429.696 156.361C427.621 156.085 425.492 155.914 423.521 156.335C422.549 156.571 421.63 156.966 421.13 157.807C420.552 158.622 420.066 159.515 419.751 160.448C419.094 162.288 419.317 164.457 420.657 165.798L420.96 166.1L420.565 166.284C419.659 166.704 418.818 167.401 418.253 168.229C417.688 169.07 417.399 170.056 417.425 171.055C417.452 172.054 417.636 173.079 417.951 173.999C418.266 174.906 418.779 175.826 419.462 176.299L419.79 176.522L419.488 176.772C418.503 177.587 417.675 178.704 417.373 179.913C417.071 181.122 417.412 182.463 418.187 183.396C418.949 184.368 420.25 184.658 421.472 184.934C422.72 185.21 424.008 185.525 425.124 186.182C426.254 186.8 427.174 187.746 428.002 188.614C428.869 189.481 429.723 190.335 430.564 191.176C432.258 192.846 433.927 194.449 435.582 195.987C437.238 197.524 438.854 198.983 440.47 200.337C442.112 201.651 443.675 203.018 445.502 203.675C447.328 204.372 449.18 204.806 450.954 205.147C452.741 205.489 454.462 205.752 456.104 205.936L455.946 206.002C460.413 199.956 463.934 195.198 466.352 191.912C467.561 190.296 468.48 189.06 469.124 188.193C469.439 187.786 469.676 187.47 469.847 187.247C470.017 187.036 470.109 186.931 470.109 186.931V186.944Z" fill="#FF9A6C"/>
<path d="M548.005 263.042C545.601 258.455 540.175 248.887 537.56 243.038L520.376 249.281C520.376 249.281 471.699 183.514 470.149 183.514C468.598 183.514 447.459 203.123 447.459 203.123C448.392 204.056 492.221 304.534 508.998 315.416C525.775 326.298 538.296 333.212 547.309 317.664C556.322 302.116 558.568 283.255 548.005 263.042Z" fill="#FFBF9D"/>
<path d="M542.395 278.8C542.395 278.8 542.067 278.366 541.594 277.525C541.121 276.684 540.412 275.475 539.518 274.003C537.731 271.046 535.077 267.063 531.872 262.884C528.653 258.705 525.539 255.077 523.266 252.462C522.202 251.226 521.296 250.188 520.573 249.36C519.942 248.624 519.614 248.203 519.64 248.177C519.666 248.151 520.061 248.506 520.757 249.202C521.44 249.886 522.412 250.898 523.595 252.173C525.946 254.709 529.139 258.297 532.358 262.503C535.59 266.709 538.191 270.743 539.886 273.779C540.74 275.291 541.384 276.539 541.804 277.42C542.225 278.301 542.435 278.787 542.395 278.813V278.8Z" fill="#FF9A6C"/>
<path d="M443.387 132.336C442.953 132.664 441.14 130.785 438.263 129.786C435.412 128.708 432.824 128.971 432.693 128.445C432.64 128.209 433.258 127.788 434.401 127.578C435.544 127.355 437.212 127.407 438.894 128.025C440.575 128.643 441.889 129.681 442.625 130.575C443.361 131.481 443.571 132.204 443.374 132.349L443.387 132.336Z" fill="#263238"/>
<path d="M487.32 395.469C487.32 395.469 487.123 395.614 486.716 395.824C486.308 396.021 485.717 396.376 484.916 396.692C483.313 397.375 480.909 398.164 477.821 398.597C474.734 399.031 471.003 399.071 466.917 398.545C462.831 398.032 458.429 396.994 453.897 395.64C444.845 392.867 436.843 389.844 431.102 387.492C428.238 386.322 425.939 385.31 424.362 384.6C423.626 384.259 423.035 383.982 422.549 383.759C422.142 383.562 421.932 383.444 421.932 383.43C421.932 383.404 422.168 383.483 422.589 383.654C423.075 383.851 423.692 384.088 424.441 384.39C426.123 385.06 428.435 385.98 431.247 387.097C437.014 389.332 445.028 392.302 454.054 395.049C458.561 396.403 462.936 397.441 466.969 397.993C471.003 398.545 474.694 398.545 477.742 398.177C480.79 397.809 483.195 397.086 484.811 396.481C486.414 395.851 487.281 395.43 487.307 395.483L487.32 395.469Z" fill="#263238"/>
<path d="M368.447 270.073C346.506 255.287 320.414 250.004 303.308 249.991C287.292 249.991 263.709 252.488 242.36 264.514C229.104 271.979 218.527 282.191 210.907 294.861C201.895 309.87 197.007 328.427 196.39 350.047C196.298 353.294 197.493 356.356 199.753 358.696C202.026 361.035 205.074 362.336 208.345 362.336L250.348 362.362C256.273 362.362 261.371 357.946 262.212 352.085C264.077 338.902 271.921 316.73 303.347 316.205C327.311 315.823 337.165 333.159 340.292 340.637C345.389 352.807 344.089 367.238 336.797 379.225C325.603 397.651 305.042 400.464 293.783 400.49C280.828 400.529 270.292 411.044 270.279 423.924L270.252 469.135C270.252 475.733 275.613 481.108 282.221 481.121L323.146 481.148C329.742 481.148 335.115 475.785 335.128 469.175V459.672C335.128 459.449 335.273 459.252 335.496 459.173C344.772 455.927 362.745 448.08 378.944 431.98C399.623 411.438 410.121 384.929 410.134 353.162C410.16 307.701 387.484 282.874 368.447 270.047V270.073Z" fill="#6267DF"/>
<path d="M304.714 492.543H301.127C284.008 492.529 270.081 506.448 270.068 523.573C270.068 540.698 283.969 554.63 301.087 554.643H304.674C321.793 554.656 335.72 540.738 335.733 523.612C335.733 506.487 321.833 492.556 304.714 492.543Z" fill="#6267DF"/>
<g opacity="0.3">
<path d="M408.558 324.143C408.006 319.517 406.797 315.087 405.103 310.829C396.904 290.379 377.683 276.434 355.795 273.95L250.178 261.938C261.66 273.674 276.651 276.014 292.548 280.141C308.445 284.267 325.551 290.445 341.619 293.862C346.769 294.953 352.103 296.333 356.11 299.75C360.026 303.088 362.207 307.964 364.269 312.682C367.317 319.661 370.379 326.653 373.427 333.632C376.908 341.61 381.546 350.613 390.94 351.125C394.723 351.336 398.442 349.916 401.319 347.445C408.111 341.61 409.556 332.528 408.558 324.169V324.143Z" fill="black"/>
</g>
<path d="M407.047 295.846C406.232 294.414 390.178 274.778 382.203 267.169C377.053 262.253 369.288 258.862 364.414 257.075C364.414 257.075 284.048 228.042 278.477 225.216L242.387 262.161C254.947 265.657 340.266 286.199 361.313 290.826C364.992 295.123 368.697 298.646 368.697 298.646L374.819 313.024C374.819 313.024 375.529 318.255 375.082 323.867C374.635 329.479 379.194 327.297 379.194 327.297C379.194 327.297 378.984 330.78 379.273 335.814C379.273 335.866 379.273 335.919 379.273 335.958C379.575 339.717 384.975 340.177 386.118 336.589L390.269 323.63C390.269 323.63 389.731 335.433 389.507 341.991C389.468 343.187 389.678 344.16 390.046 344.961C391.636 348.444 396.812 347.787 397.693 344.068L402.554 323.565L400.977 311L405.05 322.474C405.05 322.474 406.18 328.611 405.943 337.22C405.851 340.663 407.021 342.136 408.44 342.648C410.831 343.516 413.353 341.61 413.563 339.073L415.114 320.069C415.114 320.069 407.861 297.279 407.047 295.846Z" fill="#FFBF9D"/>
<path d="M273.287 223.771C273.327 223.626 275.599 223.981 279.199 224.98C282.799 225.966 287.673 227.648 292.942 229.738C298.21 231.84 302.927 233.851 306.343 235.31C309.759 236.769 311.861 237.676 311.795 237.847C311.742 238.004 309.522 237.374 306.027 236.112C302.519 234.863 297.75 232.971 292.495 230.868C287.24 228.778 282.458 226.991 278.95 225.795C275.455 224.599 273.248 223.942 273.3 223.758L273.287 223.771Z" fill="#FF9A6C"/>
</g>
<defs>
<clipPath id="clip0_19_1032">
<rect width="621" height="576" fill="white"/>
</clipPath>
</defs>
</svg>
